<svg width="1216" height="320" viewBox="0 0 1216 320" fill="none" xmlns="http://www.w3.org/2000/svg">
<g clip-path="url(#clip0_1819_4897)">
<rect width="1216" height="320" fill="#225AEA"/>
<g opacity="0.25">
<mask id="path-1-inside-1_1819_4897" fill="white">
<path d="M0 -106H32V-74H0V-106Z"/>
<path d="M32 -106H64V-74H32V-106Z"/>
<path d="M64 -106H96V-74H64V-106Z"/>
<path d="M96 -106H128V-74H96V-106Z"/>
<path d="M128 -106H160V-74H128V-106Z"/>
<path d="M160 -106H192V-74H160V-106Z"/>
<path d="M192 -106H224V-74H192V-106Z"/>
<path d="M224 -106H256V-74H224V-106Z"/>
<path d="M256 -106H288V-74H256V-106Z"/>
<path d="M288 -106H320V-74H288V-106Z"/>
<path d="M320 -106H352V-74H320V-106Z"/>
<path d="M352 -106H384V-74H352V-106Z"/>
<path d="M384 -106H416V-74H384V-106Z"/>
<path d="M416 -106H448V-74H416V-106Z"/>
<path d="M448 -106H480V-74H448V-106Z"/>
<path d="M480 -106H512V-74H480V-106Z"/>
<path d="M512 -106H544V-74H512V-106Z"/>
<path d="M544 -106H576V-74H544V-106Z"/>
<path d="M576 -106H608V-74H576V-106Z"/>
<path d="M608 -106H640V-74H608V-106Z"/>
<path d="M640 -106H672V-74H640V-106Z"/>
<path d="M672 -106H704V-74H672V-106Z"/>
<path d="M704 -106H736V-74H704V-106Z"/>
<path d="M736 -106H768V-74H736V-106Z"/>
<path d="M768 -106H800V-74H768V-106Z"/>
<path d="M800 -106H832V-74H800V-106Z"/>
<path d="M832 -106H864V-74H832V-106Z"/>
<path d="M864 -106H896V-74H864V-106Z"/>
<path d="M896 -106H928V-74H896V-106Z"/>
<path d="M928 -106H960V-74H928V-106Z"/>
<path d="M960 -106H992V-74H960V-106Z"/>
<path d="M992 -106H1024V-74H992V-106Z"/>
<path d="M1024 -106H1056V-74H1024V-106Z"/>
<path d="M1056 -106H1088V-74H1056V-106Z"/>
<path d="M1088 -106H1120V-74H1088V-106Z"/>
<path d="M1120 -106H1152V-74H1120V-106Z"/>
<path d="M1152 -106H1184V-74H1152V-106Z"/>
<path d="M1184 -106H1216V-74H1184V-106Z"/>
<path d="M0 -74H32V-42H0V-74Z"/>
<path d="M32 -74H64V-42H32V-74Z"/>
<path d="M64 -74H96V-42H64V-74Z"/>
<path d="M96 -74H128V-42H96V-74Z"/>
<path d="M128 -74H160V-42H128V-74Z"/>
<path d="M160 -74H192V-42H160V-74Z"/>
<path d="M192 -74H224V-42H192V-74Z"/>
<path d="M224 -74H256V-42H224V-74Z"/>
<path d="M256 -74H288V-42H256V-74Z"/>
<path d="M288 -74H320V-42H288V-74Z"/>
<path d="M320 -74H352V-42H320V-74Z"/>
<path d="M352 -74H384V-42H352V-74Z"/>
<path d="M384 -74H416V-42H384V-74Z"/>
<path d="M416 -74H448V-42H416V-74Z"/>
<path d="M448 -74H480V-42H448V-74Z"/>
<path d="M480 -74H512V-42H480V-74Z"/>
<path d="M512 -74H544V-42H512V-74Z"/>
<path d="M544 -74H576V-42H544V-74Z"/>
<path d="M576 -74H608V-42H576V-74Z"/>
<path d="M608 -74H640V-42H608V-74Z"/>
<path d="M640 -74H672V-42H640V-74Z"/>
<path d="M672 -74H704V-42H672V-74Z"/>
<path d="M704 -74H736V-42H704V-74Z"/>
<path d="M736 -74H768V-42H736V-74Z"/>
<path d="M768 -74H800V-42H768V-74Z"/>
<path d="M800 -74H832V-42H800V-74Z"/>
<path d="M832 -74H864V-42H832V-74Z"/>
<path d="M864 -74H896V-42H864V-74Z"/>
<path d="M896 -74H928V-42H896V-74Z"/>
<path d="M928 -74H960V-42H928V-74Z"/>
<path d="M960 -74H992V-42H960V-74Z"/>
<path d="M992 -74H1024V-42H992V-74Z"/>
<path d="M1024 -74H1056V-42H1024V-74Z"/>
<path d="M1056 -74H1088V-42H1056V-74Z"/>
<path d="M1088 -74H1120V-42H1088V-74Z"/>
<path d="M1120 -74H1152V-42H1120V-74Z"/>
<path d="M1152 -74H1184V-42H1152V-74Z"/>
<path d="M1184 -74H1216V-42H1184V-74Z"/>
<path d="M0 -42H32V-10H0V-42Z"/>
<path d="M32 -42H64V-10H32V-42Z"/>
<path d="M64 -42H96V-10H64V-42Z"/>
<path d="M96 -42H128V-10H96V-42Z"/>
<path d="M128 -42H160V-10H128V-42Z"/>
<path d="M160 -42H192V-10H160V-42Z"/>
<path d="M192 -42H224V-10H192V-42Z"/>
<path d="M224 -42H256V-10H224V-42Z"/>
<path d="M256 -42H288V-10H256V-42Z"/>
<path d="M288 -42H320V-10H288V-42Z"/>
<path d="M320 -42H352V-10H320V-42Z"/>
<path d="M352 -42H384V-10H352V-42Z"/>
<path d="M384 -42H416V-10H384V-42Z"/>
<path d="M416 -42H448V-10H416V-42Z"/>
<path d="M448 -42H480V-10H448V-42Z"/>
<path d="M480 -42H512V-10H480V-42Z"/>
<path d="M512 -42H544V-10H512V-42Z"/>
<path d="M544 -42H576V-10H544V-42Z"/>
<path d="M576 -42H608V-10H576V-42Z"/>
<path d="M608 -42H640V-10H608V-42Z"/>
<path d="M640 -42H672V-10H640V-42Z"/>
<path d="M672 -42H704V-10H672V-42Z"/>
<path d="M704 -42H736V-10H704V-42Z"/>
<path d="M736 -42H768V-10H736V-42Z"/>
<path d="M768 -42H800V-10H768V-42Z"/>
<path d="M800 -42H832V-10H800V-42Z"/>
<path d="M832 -42H864V-10H832V-42Z"/>
<path d="M864 -42H896V-10H864V-42Z"/>
<path d="M896 -42H928V-10H896V-42Z"/>
<path d="M928 -42H960V-10H928V-42Z"/>
<path d="M960 -42H992V-10H960V-42Z"/>
<path d="M992 -42H1024V-10H992V-42Z"/>
<path d="M1024 -42H1056V-10H1024V-42Z"/>
<path d="M1056 -42H1088V-10H1056V-42Z"/>
<path d="M1088 -42H1120V-10H1088V-42Z"/>
<path d="M1120 -42H1152V-10H1120V-42Z"/>
<path d="M1152 -42H1184V-10H1152V-42Z"/>
<path d="M1184 -42H1216V-10H1184V-42Z"/>
<path d="M0 -10H32V22H0V-10Z"/>
<path d="M32 -10H64V22H32V-10Z"/>
<path d="M64 -10H96V22H64V-10Z"/>
<path d="M96 -10H128V22H96V-10Z"/>
<path d="M128 -10H160V22H128V-10Z"/>
<path d="M160 -10H192V22H160V-10Z"/>
<path d="M192 -10H224V22H192V-10Z"/>
<path d="M224 -10H256V22H224V-10Z"/>
<path d="M256 -10H288V22H256V-10Z"/>
<path d="M288 -10H320V22H288V-10Z"/>
<path d="M320 -10H352V22H320V-10Z"/>
<path d="M352 -10H384V22H352V-10Z"/>
<path d="M384 -10H416V22H384V-10Z"/>
<path d="M416 -10H448V22H416V-10Z"/>
<path d="M448 -10H480V22H448V-10Z"/>
<path d="M480 -10H512V22H480V-10Z"/>
<path d="M512 -10H544V22H512V-10Z"/>
<path d="M544 -10H576V22H544V-10Z"/>
<path d="M576 -10H608V22H576V-10Z"/>
<path d="M608 -10H640V22H608V-10Z"/>
<path d="M640 -10H672V22H640V-10Z"/>
<path d="M672 -10H704V22H672V-10Z"/>
<path d="M704 -10H736V22H704V-10Z"/>
<path d="M736 -10H768V22H736V-10Z"/>
<path d="M768 -10H800V22H768V-10Z"/>
<path d="M800 -10H832V22H800V-10Z"/>
<path d="M832 -10H864V22H832V-10Z"/>
<path d="M864 -10H896V22H864V-10Z"/>
<path d="M896 -10H928V22H896V-10Z"/>
<path d="M928 -10H960V22H928V-10Z"/>
<path d="M960 -10H992V22H960V-10Z"/>
<path d="M992 -10H1024V22H992V-10Z"/>
<path d="M1024 -10H1056V22H1024V-10Z"/>
<path d="M1056 -10H1088V22H1056V-10Z"/>
<path d="M1088 -10H1120V22H1088V-10Z"/>
<path d="M1120 -10H1152V22H1120V-10Z"/>
<path d="M1152 -10H1184V22H1152V-10Z"/>
<path d="M1184 -10H1216V22H1184V-10Z"/>
<path d="M0 22H32V54H0V22Z"/>
<path d="M32 22H64V54H32V22Z"/>
<path d="M64 22H96V54H64V22Z"/>
<path d="M96 22H128V54H96V22Z"/>
<path d="M128 22H160V54H128V22Z"/>
<path d="M160 22H192V54H160V22Z"/>
<path d="M192 22H224V54H192V22Z"/>
<path d="M224 22H256V54H224V22Z"/>
<path d="M256 22H288V54H256V22Z"/>
<path d="M288 22H320V54H288V22Z"/>
<path d="M320 22H352V54H320V22Z"/>
<path d="M352 22H384V54H352V22Z"/>
<path d="M384 22H416V54H384V22Z"/>
<path d="M416 22H448V54H416V22Z"/>
<path d="M448 22H480V54H448V22Z"/>
<path d="M480 22H512V54H480V22Z"/>
<path d="M512 22H544V54H512V22Z"/>
<path d="M544 22H576V54H544V22Z"/>
<path d="M576 22H608V54H576V22Z"/>
<path d="M608 22H640V54H608V22Z"/>
<path d="M640 22H672V54H640V22Z"/>
<path d="M672 22H704V54H672V22Z"/>
<path d="M704 22H736V54H704V22Z"/>
<path d="M736 22H768V54H736V22Z"/>
<path d="M768 22H800V54H768V22Z"/>
<path d="M800 22H832V54H800V22Z"/>
<path d="M832 22H864V54H832V22Z"/>
<path d="M864 22H896V54H864V22Z"/>
<path d="M896 22H928V54H896V22Z"/>
<path d="M928 22H960V54H928V22Z"/>
<path d="M960 22H992V54H960V22Z"/>
<path d="M992 22H1024V54H992V22Z"/>
<path d="M1024 22H1056V54H1024V22Z"/>
<path d="M1056 22H1088V54H1056V22Z"/>
<path d="M1088 22H1120V54H1088V22Z"/>
<path d="M1120 22H1152V54H1120V22Z"/>
<path d="M1152 22H1184V54H1152V22Z"/>
<path d="M1184 22H1216V54H1184V22Z"/>
<path d="M0 54H32V86H0V54Z"/>
<path d="M32 54H64V86H32V54Z"/>
<path d="M64 54H96V86H64V54Z"/>
<path d="M96 54H128V86H96V54Z"/>
<path d="M128 54H160V86H128V54Z"/>
<path d="M160 54H192V86H160V54Z"/>
<path d="M192 54H224V86H192V54Z"/>
<path d="M224 54H256V86H224V54Z"/>
<path d="M256 54H288V86H256V54Z"/>
<path d="M288 54H320V86H288V54Z"/>
<path d="M320 54H352V86H320V54Z"/>
<path d="M352 54H384V86H352V54Z"/>
<path d="M384 54H416V86H384V54Z"/>
<path d="M416 54H448V86H416V54Z"/>
<path d="M448 54H480V86H448V54Z"/>
<path d="M480 54H512V86H480V54Z"/>
<path d="M512 54H544V86H512V54Z"/>
<path d="M544 54H576V86H544V54Z"/>
<path d="M576 54H608V86H576V54Z"/>
<path d="M608 54H640V86H608V54Z"/>
<path d="M640 54H672V86H640V54Z"/>
<path d="M672 54H704V86H672V54Z"/>
<path d="M704 54H736V86H704V54Z"/>
<path d="M736 54H768V86H736V54Z"/>
<path d="M768 54H800V86H768V54Z"/>
<path d="M800 54H832V86H800V54Z"/>
<path d="M832 54H864V86H832V54Z"/>
<path d="M864 54H896V86H864V54Z"/>
<path d="M896 54H928V86H896V54Z"/>
<path d="M928 54H960V86H928V54Z"/>
<path d="M960 54H992V86H960V54Z"/>
<path d="M992 54H1024V86H992V54Z"/>
<path d="M1024 54H1056V86H1024V54Z"/>
<path d="M1056 54H1088V86H1056V54Z"/>
<path d="M1088 54H1120V86H1088V54Z"/>
<path d="M1120 54H1152V86H1120V54Z"/>
<path d="M1152 54H1184V86H1152V54Z"/>
<path d="M1184 54H1216V86H1184V54Z"/>
<path d="M0 86H32V118H0V86Z"/>
<path d="M32 86H64V118H32V86Z"/>
<path d="M64 86H96V118H64V86Z"/>
<path d="M96 86H128V118H96V86Z"/>
<path d="M128 86H160V118H128V86Z"/>
<path d="M160 86H192V118H160V86Z"/>
<path d="M192 86H224V118H192V86Z"/>
<path d="M224 86H256V118H224V86Z"/>
<path d="M256 86H288V118H256V86Z"/>
<path d="M288 86H320V118H288V86Z"/>
<path d="M320 86H352V118H320V86Z"/>
<path d="M352 86H384V118H352V86Z"/>
<path d="M384 86H416V118H384V86Z"/>
<path d="M416 86H448V118H416V86Z"/>
<path d="M448 86H480V118H448V86Z"/>
<path d="M480 86H512V118H480V86Z"/>
<path d="M512 86H544V118H512V86Z"/>
<path d="M544 86H576V118H544V86Z"/>
<path d="M576 86H608V118H576V86Z"/>
<path d="M608 86H640V118H608V86Z"/>
<path d="M640 86H672V118H640V86Z"/>
<path d="M672 86H704V118H672V86Z"/>
<path d="M704 86H736V118H704V86Z"/>
<path d="M736 86H768V118H736V86Z"/>
<path d="M768 86H800V118H768V86Z"/>
<path d="M800 86H832V118H800V86Z"/>
<path d="M832 86H864V118H832V86Z"/>
<path d="M864 86H896V118H864V86Z"/>
<path d="M896 86H928V118H896V86Z"/>
<path d="M928 86H960V118H928V86Z"/>
<path d="M960 86H992V118H960V86Z"/>
<path d="M992 86H1024V118H992V86Z"/>
<path d="M1024 86H1056V118H1024V86Z"/>
<path d="M1056 86H1088V118H1056V86Z"/>
<path d="M1088 86H1120V118H1088V86Z"/>
<path d="M1120 86H1152V118H1120V86Z"/>
<path d="M1152 86H1184V118H1152V86Z"/>
<path d="M1184 86H1216V118H1184V86Z"/>
<path d="M0 118H32V150H0V118Z"/>
<path d="M32 118H64V150H32V118Z"/>
<path d="M64 118H96V150H64V118Z"/>
<path d="M96 118H128V150H96V118Z"/>
<path d="M128 118H160V150H128V118Z"/>
<path d="M160 118H192V150H160V118Z"/>
<path d="M192 118H224V150H192V118Z"/>
<path d="M224 118H256V150H224V118Z"/>
<path d="M256 118H288V150H256V118Z"/>
<path d="M288 118H320V150H288V118Z"/>
<path d="M320 118H352V150H320V118Z"/>
<path d="M352 118H384V150H352V118Z"/>
<path d="M384 118H416V150H384V118Z"/>
<path d="M416 118H448V150H416V118Z"/>
<path d="M448 118H480V150H448V118Z"/>
<path d="M480 118H512V150H480V118Z"/>
<path d="M512 118H544V150H512V118Z"/>
<path d="M544 118H576V150H544V118Z"/>
<path d="M576 118H608V150H576V118Z"/>
<path d="M608 118H640V150H608V118Z"/>
<path d="M640 118H672V150H640V118Z"/>
<path d="M672 118H704V150H672V118Z"/>
<path d="M704 118H736V150H704V118Z"/>
<path d="M736 118H768V150H736V118Z"/>
<path d="M768 118H800V150H768V118Z"/>
<path d="M800 118H832V150H800V118Z"/>
<path d="M832 118H864V150H832V118Z"/>
<path d="M864 118H896V150H864V118Z"/>
<path d="M896 118H928V150H896V118Z"/>
<path d="M928 118H960V150H928V118Z"/>
<path d="M960 118H992V150H960V118Z"/>
<path d="M992 118H1024V150H992V118Z"/>
<path d="M1024 118H1056V150H1024V118Z"/>
<path d="M1056 118H1088V150H1056V118Z"/>
<path d="M1088 118H1120V150H1088V118Z"/>
<path d="M1120 118H1152V150H1120V118Z"/>
<path d="M1152 118H1184V150H1152V118Z"/>
<path d="M1184 118H1216V150H1184V118Z"/>
<path d="M0 150H32V182H0V150Z"/>
<path d="M32 150H64V182H32V150Z"/>
<path d="M64 150H96V182H64V150Z"/>
<path d="M96 150H128V182H96V150Z"/>
<path d="M128 150H160V182H128V150Z"/>
<path d="M160 150H192V182H160V150Z"/>
<path d="M192 150H224V182H192V150Z"/>
<path d="M224 150H256V182H224V150Z"/>
<path d="M256 150H288V182H256V150Z"/>
<path d="M288 150H320V182H288V150Z"/>
<path d="M320 150H352V182H320V150Z"/>
<path d="M352 150H384V182H352V150Z"/>
<path d="M384 150H416V182H384V150Z"/>
<path d="M416 150H448V182H416V150Z"/>
<path d="M448 150H480V182H448V150Z"/>
<path d="M480 150H512V182H480V150Z"/>
<path d="M512 150H544V182H512V150Z"/>
<path d="M544 150H576V182H544V150Z"/>
<path d="M576 150H608V182H576V150Z"/>
<path d="M608 150H640V182H608V150Z"/>
<path d="M640 150H672V182H640V150Z"/>
<path d="M672 150H704V182H672V150Z"/>
<path d="M704 150H736V182H704V150Z"/>
<path d="M736 150H768V182H736V150Z"/>
<path d="M768 150H800V182H768V150Z"/>
<path d="M800 150H832V182H800V150Z"/>
<path d="M832 150H864V182H832V150Z"/>
<path d="M864 150H896V182H864V150Z"/>
<path d="M896 150H928V182H896V150Z"/>
<path d="M928 150H960V182H928V150Z"/>
<path d="M960 150H992V182H960V150Z"/>
<path d="M992 150H1024V182H992V150Z"/>
<path d="M1024 150H1056V182H1024V150Z"/>
<path d="M1056 150H1088V182H1056V150Z"/>
<path d="M1088 150H1120V182H1088V150Z"/>
<path d="M1120 150H1152V182H1120V150Z"/>
<path d="M1152 150H1184V182H1152V150Z"/>
<path d="M1184 150H1216V182H1184V150Z"/>
<path d="M0 182H32V214H0V182Z"/>
<path d="M32 182H64V214H32V182Z"/>
<path d="M64 182H96V214H64V182Z"/>
<path d="M96 182H128V214H96V182Z"/>
<path d="M128 182H160V214H128V182Z"/>
<path d="M160 182H192V214H160V182Z"/>
<path d="M192 182H224V214H192V182Z"/>
<path d="M224 182H256V214H224V182Z"/>
<path d="M256 182H288V214H256V182Z"/>
<path d="M288 182H320V214H288V182Z"/>
<path d="M320 182H352V214H320V182Z"/>
<path d="M352 182H384V214H352V182Z"/>
<path d="M384 182H416V214H384V182Z"/>
<path d="M416 182H448V214H416V182Z"/>
<path d="M448 182H480V214H448V182Z"/>
<path d="M480 182H512V214H480V182Z"/>
<path d="M512 182H544V214H512V182Z"/>
<path d="M544 182H576V214H544V182Z"/>
<path d="M576 182H608V214H576V182Z"/>
<path d="M608 182H640V214H608V182Z"/>
<path d="M640 182H672V214H640V182Z"/>
<path d="M672 182H704V214H672V182Z"/>
<path d="M704 182H736V214H704V182Z"/>
<path d="M736 182H768V214H736V182Z"/>
<path d="M768 182H800V214H768V182Z"/>
<path d="M800 182H832V214H800V182Z"/>
<path d="M832 182H864V214H832V182Z"/>
<path d="M864 182H896V214H864V182Z"/>
<path d="M896 182H928V214H896V182Z"/>
<path d="M928 182H960V214H928V182Z"/>
<path d="M960 182H992V214H960V182Z"/>
<path d="M992 182H1024V214H992V182Z"/>
<path d="M1024 182H1056V214H1024V182Z"/>
<path d="M1056 182H1088V214H1056V182Z"/>
<path d="M1088 182H1120V214H1088V182Z"/>
<path d="M1120 182H1152V214H1120V182Z"/>
<path d="M1152 182H1184V214H1152V182Z"/>
<path d="M1184 182H1216V214H1184V182Z"/>
<path d="M0 214H32V246H0V214Z"/>
<path d="M32 214H64V246H32V214Z"/>
<path d="M64 214H96V246H64V214Z"/>
<path d="M96 214H128V246H96V214Z"/>
<path d="M128 214H160V246H128V214Z"/>
<path d="M160 214H192V246H160V214Z"/>
<path d="M192 214H224V246H192V214Z"/>
<path d="M224 214H256V246H224V214Z"/>
<path d="M256 214H288V246H256V214Z"/>
<path d="M288 214H320V246H288V214Z"/>
<path d="M320 214H352V246H320V214Z"/>
<path d="M352 214H384V246H352V214Z"/>
<path d="M384 214H416V246H384V214Z"/>
<path d="M416 214H448V246H416V214Z"/>
<path d="M448 214H480V246H448V214Z"/>
<path d="M480 214H512V246H480V214Z"/>
<path d="M512 214H544V246H512V214Z"/>
<path d="M544 214H576V246H544V214Z"/>
<path d="M576 214H608V246H576V214Z"/>
<path d="M608 214H640V246H608V214Z"/>
<path d="M640 214H672V246H640V214Z"/>
<path d="M672 214H704V246H672V214Z"/>
<path d="M704 214H736V246H704V214Z"/>
<path d="M736 214H768V246H736V214Z"/>
<path d="M768 214H800V246H768V214Z"/>
<path d="M800 214H832V246H800V214Z"/>
<path d="M832 214H864V246H832V214Z"/>
<path d="M864 214H896V246H864V214Z"/>
<path d="M896 214H928V246H896V214Z"/>
<path d="M928 214H960V246H928V214Z"/>
<path d="M960 214H992V246H960V214Z"/>
<path d="M992 214H1024V246H992V214Z"/>
<path d="M1024 214H1056V246H1024V214Z"/>
<path d="M1056 214H1088V246H1056V214Z"/>
<path d="M1088 214H1120V246H1088V214Z"/>
<path d="M1120 214H1152V246H1120V214Z"/>
<path d="M1152 214H1184V246H1152V214Z"/>
<path d="M1184 214H1216V246H1184V214Z"/>
<path d="M0 246H32V278H0V246Z"/>
<path d="M32 246H64V278H32V246Z"/>
<path d="M64 246H96V278H64V246Z"/>
<path d="M96 246H128V278H96V246Z"/>
<path d="M128 246H160V278H128V246Z"/>
<path d="M160 246H192V278H160V246Z"/>
<path d="M192 246H224V278H192V246Z"/>
<path d="M224 246H256V278H224V246Z"/>
<path d="M256 246H288V278H256V246Z"/>
<path d="M288 246H320V278H288V246Z"/>
<path d="M320 246H352V278H320V246Z"/>
<path d="M352 246H384V278H352V246Z"/>
<path d="M384 246H416V278H384V246Z"/>
<path d="M416 246H448V278H416V246Z"/>
<path d="M448 246H480V278H448V246Z"/>
<path d="M480 246H512V278H480V246Z"/>
<path d="M512 246H544V278H512V246Z"/>
<path d="M544 246H576V278H544V246Z"/>
<path d="M576 246H608V278H576V246Z"/>
<path d="M608 246H640V278H608V246Z"/>
<path d="M640 246H672V278H640V246Z"/>
<path d="M672 246H704V278H672V246Z"/>
<path d="M704 246H736V278H704V246Z"/>
<path d="M736 246H768V278H736V246Z"/>
<path d="M768 246H800V278H768V246Z"/>
<path d="M800 246H832V278H800V246Z"/>
<path d="M832 246H864V278H832V246Z"/>
<path d="M864 246H896V278H864V246Z"/>
<path d="M896 246H928V278H896V246Z"/>
<path d="M928 246H960V278H928V246Z"/>
<path d="M960 246H992V278H960V246Z"/>
<path d="M992 246H1024V278H992V246Z"/>
<path d="M1024 246H1056V278H1024V246Z"/>
<path d="M1056 246H1088V278H1056V246Z"/>
<path d="M1088 246H1120V278H1088V246Z"/>
<path d="M1120 246H1152V278H1120V246Z"/>
<path d="M1152 246H1184V278H1152V246Z"/>
<path d="M1184 246H1216V278H1184V246Z"/>
<path d="M0 278H32V310H0V278Z"/>
<path d="M32 278H64V310H32V278Z"/>
<path d="M64 278H96V310H64V278Z"/>
<path d="M96 278H128V310H96V278Z"/>
<path d="M128 278H160V310H128V278Z"/>
<path d="M160 278H192V310H160V278Z"/>
<path d="M192 278H224V310H192V278Z"/>
<path d="M224 278H256V310H224V278Z"/>
<path d="M256 278H288V310H256V278Z"/>
<path d="M288 278H320V310H288V278Z"/>
<path d="M320 278H352V310H320V278Z"/>
<path d="M352 278H384V310H352V278Z"/>
<path d="M384 278H416V310H384V278Z"/>
<path d="M416 278H448V310H416V278Z"/>
<path d="M448 278H480V310H448V278Z"/>
<path d="M480 278H512V310H480V278Z"/>
<path d="M512 278H544V310H512V278Z"/>
<path d="M544 278H576V310H544V278Z"/>
<path d="M576 278H608V310H576V278Z"/>
<path d="M608 278H640V310H608V278Z"/>
<path d="M640 278H672V310H640V278Z"/>
<path d="M672 278H704V310H672V278Z"/>
<path d="M704 278H736V310H704V278Z"/>
<path d="M736 278H768V310H736V278Z"/>
<path d="M768 278H800V310H768V278Z"/>
<path d="M800 278H832V310H800V278Z"/>
<path d="M832 278H864V310H832V278Z"/>
<path d="M864 278H896V310H864V278Z"/>
<path d="M896 278H928V310H896V278Z"/>
<path d="M928 278H960V310H928V278Z"/>
<path d="M960 278H992V310H960V278Z"/>
<path d="M992 278H1024V310H992V278Z"/>
<path d="M1024 278H1056V310H1024V278Z"/>
<path d="M1056 278H1088V310H1056V278Z"/>
<path d="M1088 278H1120V310H1088V278Z"/>
<path d="M1120 278H1152V310H1120V278Z"/>
<path d="M1152 278H1184V310H1152V278Z"/>
<path d="M1184 278H1216V310H1184V278Z"/>
<path d="M0 310H32V342H0V310Z"/>
<path d="M32 310H64V342H32V310Z"/>
<path d="M64 310H96V342H64V310Z"/>
<path d="M96 310H128V342H96V310Z"/>
<path d="M128 310H160V342H128V310Z"/>
<path d="M160 310H192V342H160V310Z"/>
<path d="M192 310H224V342H192V310Z"/>
<path d="M224 310H256V342H224V310Z"/>
<path d="M256 310H288V342H256V310Z"/>
<path d="M288 310H320V342H288V310Z"/>
<path d="M320 310H352V342H320V310Z"/>
<path d="M352 310H384V342H352V310Z"/>
<path d="M384 310H416V342H384V310Z"/>
<path d="M416 310H448V342H416V310Z"/>
<path d="M448 310H480V342H448V310Z"/>
<path d="M480 310H512V342H480V310Z"/>
<path d="M512 310H544V342H512V310Z"/>
<path d="M544 310H576V342H544V310Z"/>
<path d="M576 310H608V342H576V310Z"/>
<path d="M608 310H640V342H608V310Z"/>
<path d="M640 310H672V342H640V310Z"/>
<path d="M672 310H704V342H672V310Z"/>
<path d="M704 310H736V342H704V310Z"/>
<path d="M736 310H768V342H736V310Z"/>
<path d="M768 310H800V342H768V310Z"/>
<path d="M800 310H832V342H800V310Z"/>
<path d="M832 310H864V342H832V310Z"/>
<path d="M864 310H896V342H864V310Z"/>
<path d="M896 310H928V342H896V310Z"/>
<path d="M928 310H960V342H928V310Z"/>
<path d="M960 310H992V342H960V310Z"/>
<path d="M992 310H1024V342H992V310Z"/>
<path d="M1024 310H1056V342H1024V310Z"/>
<path d="M1056 310H1088V342H1056V310Z"/>
<path d="M1088 310H1120V342H1088V310Z"/>
<path d="M1120 310H1152V342H1120V310Z"/>
<path d="M1152 310H1184V342H1152V310Z"/>
<path d="M1184 310H1216V342H1184V310Z"/>
<path d="M0 342H32V374H0V342Z"/>
<path d="M32 342H64V374H32V342Z"/>
<path d="M64 342H96V374H64V342Z"/>
<path d="M96 342H128V374H96V342Z"/>
<path d="M128 342H160V374H128V342Z"/>
<path d="M160 342H192V374H160V342Z"/>
<path d="M192 342H224V374H192V342Z"/>
<path d="M224 342H256V374H224V342Z"/>
<path d="M256 342H288V374H256V342Z"/>
<path d="M288 342H320V374H288V342Z"/>
<path d="M320 342H352V374H320V342Z"/>
<path d="M352 342H384V374H352V342Z"/>
<path d="M384 342H416V374H384V342Z"/>
<path d="M416 342H448V374H416V342Z"/>
<path d="M448 342H480V374H448V342Z"/>
<path d="M480 342H512V374H480V342Z"/>
<path d="M512 342H544V374H512V342Z"/>
<path d="M544 342H576V374H544V342Z"/>
<path d="M576 342H608V374H576V342Z"/>
<path d="M608 342H640V374H608V342Z"/>
<path d="M640 342H672V374H640V342Z"/>
<path d="M672 342H704V374H672V342Z"/>
<path d="M704 342H736V374H704V342Z"/>
<path d="M736 342H768V374H736V342Z"/>
<path d="M768 342H800V374H768V342Z"/>
<path d="M800 342H832V374H800V342Z"/>
<path d="M832 342H864V374H832V342Z"/>
<path d="M864 342H896V374H864V342Z"/>
<path d="M896 342H928V374H896V342Z"/>
<path d="M928 342H960V374H928V342Z"/>
<path d="M960 342H992V374H960V342Z"/>
<path d="M992 342H1024V374H992V342Z"/>
<path d="M1024 342H1056V374H1024V342Z"/>
<path d="M1056 342H1088V374H1056V342Z"/>
<path d="M1088 342H1120V374H1088V342Z"/>
<path d="M1120 342H1152V374H1120V342Z"/>
<path d="M1152 342H1184V374H1152V342Z"/>
<path d="M1184 342H1216V374H1184V342Z"/>
<path d="M0 374H32V406H0V374Z"/>
<path d="M32 374H64V406H32V374Z"/>
<path d="M64 374H96V406H64V374Z"/>
<path d="M96 374H128V406H96V374Z"/>
<path d="M128 374H160V406H128V374Z"/>
<path d="M160 374H192V406H160V374Z"/>
<path d="M192 374H224V406H192V374Z"/>
<path d="M224 374H256V406H224V374Z"/>
<path d="M256 374H288V406H256V374Z"/>
<path d="M288 374H320V406H288V374Z"/>
<path d="M320 374H352V406H320V374Z"/>
<path d="M352 374H384V406H352V374Z"/>
<path d="M384 374H416V406H384V374Z"/>
<path d="M416 374H448V406H416V374Z"/>
<path d="M448 374H480V406H448V374Z"/>
<path d="M480 374H512V406H480V374Z"/>
<path d="M512 374H544V406H512V374Z"/>
<path d="M544 374H576V406H544V374Z"/>
<path d="M576 374H608V406H576V374Z"/>
<path d="M608 374H640V406H608V374Z"/>
<path d="M640 374H672V406H640V374Z"/>
<path d="M672 374H704V406H672V374Z"/>
<path d="M704 374H736V406H704V374Z"/>
<path d="M736 374H768V406H736V374Z"/>
<path d="M768 374H800V406H768V374Z"/>
<path d="M800 374H832V406H800V374Z"/>
<path d="M832 374H864V406H832V374Z"/>
<path d="M864 374H896V406H864V374Z"/>
<path d="M896 374H928V406H896V374Z"/>
<path d="M928 374H960V406H928V374Z"/>
<path d="M960 374H992V406H960V374Z"/>
<path d="M992 374H1024V406H992V374Z"/>
<path d="M1024 374H1056V406H1024V374Z"/>
<path d="M1056 374H1088V406H1056V374Z"/>
<path d="M1088 374H1120V406H1088V374Z"/>
<path d="M1120 374H1152V406H1120V374Z"/>
<path d="M1152 374H1184V406H1152V374Z"/>
<path d="M1184 374H1216V406H1184V374Z"/>
</mask>
<path d="M31.5 -106V-74H32.5V-106H31.5ZM32 -74.5H0V-73.5H32V-74.5ZM63.5 -106V-74H64.5V-106H63.5ZM64 -74.5H32V-73.5H64V-74.5ZM95.5 -106V-74H96.5V-106H95.5ZM96 -74.5H64V-73.5H96V-74.5ZM127.5 -106V-74H128.5V-106H127.5ZM128 -74.5H96V-73.5H128V-74.5ZM159.5 -106V-74H160.5V-106H159.5ZM160 -74.5H128V-73.5H160V-74.5ZM191.5 -106V-74H192.5V-106H191.5ZM192 -74.5H160V-73.5H192V-74.5ZM223.5 -106V-74H224.5V-106H223.5ZM224 -74.5H192V-73.5H224V-74.5ZM255.5 -106V-74H256.5V-106H255.5ZM256 -74.5H224V-73.5H256V-74.5ZM287.5 -106V-74H288.5V-106H287.5ZM288 -74.5H256V-73.5H288V-74.5ZM319.5 -106V-74H320.5V-106H319.5ZM320 -74.5H288V-73.5H320V-74.5ZM351.5 -106V-74H352.5V-106H351.5ZM352 -74.5H320V-73.5H352V-74.5ZM383.5 -106V-74H384.5V-106H383.5ZM384 -74.5H352V-73.5H384V-74.5ZM415.5 -106V-74H416.5V-106H415.5ZM416 -74.5H384V-73.5H416V-74.5ZM447.5 -106V-74H448.5V-106H447.5ZM448 -74.5H416V-73.5H448V-74.5ZM479.5 -106V-74H480.5V-106H479.5ZM480 -74.5H448V-73.5H480V-74.5ZM511.5 -106V-74H512.5V-106H511.5ZM512 -74.5H480V-73.5H512V-74.5ZM543.5 -106V-74H544.5V-106H543.5ZM544 -74.5H512V-73.5H544V-74.5ZM575.5 -106V-74H576.5V-106H575.5ZM576 -74.5H544V-73.5H576V-74.5ZM607.5 -106V-74H608.5V-106H607.5ZM608 -74.5H576V-73.5H608V-74.5ZM639.5 -106V-74H640.5V-106H639.5ZM640 -74.5H608V-73.5H640V-74.5ZM671.5 -106V-74H672.5V-106H671.5ZM672 -74.5H640V-73.5H672V-74.5ZM703.5 -106V-74H704.5V-106H703.5ZM704 -74.5H672V-73.5H704V-74.5ZM735.5 -106V-74H736.5V-106H735.5ZM736 -74.5H704V-73.5H736V-74.5ZM767.5 -106V-74H768.5V-106H767.5ZM768 -74.5H736V-73.5H768V-74.5ZM799.5 -106V-74H800.5V-106H799.5ZM800 -74.5H768V-73.5H800V-74.5ZM831.5 -106V-74H832.5V-106H831.5ZM832 -74.5H800V-73.5H832V-74.5ZM863.5 -106V-74H864.5V-106H863.5ZM864 -74.5H832V-73.5H864V-74.5ZM895.5 -106V-74H896.5V-106H895.5ZM896 -74.5H864V-73.5H896V-74.5ZM927.5 -106V-74H928.5V-106H927.5ZM928 -74.5H896V-73.5H928V-74.5ZM959.5 -106V-74H960.5V-106H959.5ZM960 -74.5H928V-73.5H960V-74.5ZM991.5 -106V-74H992.5V-106H991.5ZM992 -74.5H960V-73.5H992V-74.5ZM1023.5 -106V-74H1024.5V-106H1023.5ZM1024 -74.5H992V-73.5H1024V-74.5ZM1055.5 -106V-74H1056.5V-106H1055.5ZM1056 -74.5H1024V-73.5H1056V-74.5ZM1087.5 -106V-74H1088.5V-106H1087.5ZM1088 -74.5H1056V-73.5H1088V-74.5ZM1119.5 -106V-74H1120.5V-106H1119.5ZM1120 -74.5H1088V-73.5H1120V-74.5ZM1151.5 -106V-74H1152.5V-106H1151.5ZM1152 -74.5H1120V-73.5H1152V-74.5ZM1183.5 -106V-74H1184.5V-106H1183.5ZM1184 -74.5H1152V-73.5H1184V-74.5ZM1216 -74.5H1184V-73.5H1216V-74.5ZM31.5 -74V-42H32.5V-74H31.5ZM32 -42.5H0V-41.5H32V-42.5ZM63.5 -74V-42H64.5V-74H63.5ZM64 -42.5H32V-41.5H64V-42.5ZM95.5 -74V-42H96.5V-74H95.5ZM96 -42.5H64V-41.5H96V-42.5ZM127.5 -74V-42H128.5V-74H127.5ZM128 -42.5H96V-41.5H128V-42.5ZM159.5 -74V-42H160.5V-74H159.5ZM160 -42.5H128V-41.5H160V-42.5ZM191.5 -74V-42H192.5V-74H191.5ZM192 -42.5H160V-41.5H192V-42.5ZM223.5 -74V-42H224.5V-74H223.5ZM224 -42.5H192V-41.5H224V-42.5ZM255.5 -74V-42H256.5V-74H255.5ZM256 -42.5H224V-41.5H256V-42.5ZM287.5 -74V-42H288.5V-74H287.5ZM288 -42.5H256V-41.5H288V-42.5ZM319.5 -74V-42H320.5V-74H319.5ZM320 -42.5H288V-41.5H320V-42.5ZM351.5 -74V-42H352.5V-74H351.5ZM352 -42.5H320V-41.5H352V-42.5ZM383.5 -74V-42H384.5V-74H383.5ZM384 -42.5H352V-41.5H384V-42.5ZM415.5 -74V-42H416.5V-74H415.5ZM416 -42.5H384V-41.5H416V-42.5ZM447.5 -74V-42H448.5V-74H447.5ZM448 -42.5H416V-41.5H448V-42.5ZM479.5 -74V-42H480.5V-74H479.5ZM480 -42.5H448V-41.5H480V-42.5ZM511.5 -74V-42H512.5V-74H511.5ZM512 -42.5H480V-41.5H512V-42.5ZM543.5 -74V-42H544.5V-74H543.5ZM544 -42.5H512V-41.5H544V-42.5ZM575.5 -74V-42H576.5V-74H575.5ZM576 -42.5H544V-41.5H576V-42.5ZM607.5 -74V-42H608.5V-74H607.5ZM608 -42.5H576V-41.5H608V-42.5ZM639.5 -74V-42H640.5V-74H639.5ZM640 -42.5H608V-41.5H640V-42.5ZM671.5 -74V-42H672.5V-74H671.5ZM672 -42.5H640V-41.5H672V-42.5ZM703.5 -74V-42H704.5V-74H703.5ZM704 -42.5H672V-41.5H704V-42.5ZM735.5 -74V-42H736.5V-74H735.5ZM736 -42.5H704V-41.5H736V-42.5ZM767.5 -74V-42H768.5V-74H767.5ZM768 -42.5H736V-41.5H768V-42.5ZM799.5 -74V-42H800.5V-74H799.5ZM800 -42.5H768V-41.5H800V-42.5ZM831.5 -74V-42H832.5V-74H831.5ZM832 -42.5H800V-41.5H832V-42.5ZM863.5 -74V-42H864.5V-74H863.5ZM864 -42.5H832V-41.5H864V-42.5ZM895.5 -74V-42H896.5V-74H895.5ZM896 -42.5H864V-41.5H896V-42.5ZM927.5 -74V-42H928.5V-74H927.5ZM928 -42.5H896V-41.5H928V-42.5ZM959.5 -74V-42H960.5V-74H959.5ZM960 -42.5H928V-41.5H960V-42.5ZM991.5 -74V-42H992.5V-74H991.5ZM992 -42.5H960V-41.5H992V-42.5ZM1023.5 -74V-42H1024.5V-74H1023.5ZM1024 -42.5H992V-41.5H1024V-42.5ZM1055.5 -74V-42H1056.5V-74H1055.5ZM1056 -42.5H1024V-41.5H1056V-42.5ZM1087.5 -74V-42H1088.5V-74H1087.5ZM1088 -42.5H1056V-41.5H1088V-42.5ZM1119.5 -74V-42H1120.5V-74H1119.5ZM1120 -42.5H1088V-41.5H1120V-42.5ZM1151.5 -74V-42H1152.5V-74H1151.5ZM1152 -42.5H1120V-41.5H1152V-42.5ZM1183.5 -74V-42H1184.5V-74H1183.5ZM1184 -42.5H1152V-41.5H1184V-42.5ZM1216 -42.5H1184V-41.5H1216V-42.5ZM31.5 -42V-10H32.5V-42H31.5ZM32 -10.5H0V-9.5H32V-10.5ZM63.5 -42V-10H64.5V-42H63.5ZM64 -10.5H32V-9.5H64V-10.5ZM95.5 -42V-10H96.5V-42H95.5ZM96 -10.5H64V-9.5H96V-10.5ZM127.5 -42V-10H128.5V-42H127.5ZM128 -10.5H96V-9.5H128V-10.5ZM159.5 -42V-10H160.5V-42H159.5ZM160 -10.5H128V-9.5H160V-10.5ZM191.5 -42V-10H192.5V-42H191.5ZM192 -10.5H160V-9.5H192V-10.5ZM223.5 -42V-10H224.5V-42H223.5ZM224 -10.5H192V-9.5H224V-10.5ZM255.5 -42V-10H256.5V-42H255.5ZM256 -10.5H224V-9.5H256V-10.5ZM287.5 -42V-10H288.5V-42H287.5ZM288 -10.5H256V-9.5H288V-10.5ZM319.5 -42V-10H320.5V-42H319.5ZM320 -10.5H288V-9.5H320V-10.5ZM351.5 -42V-10H352.5V-42H351.5ZM352 -10.5H320V-9.5H352V-10.5ZM383.5 -42V-10H384.5V-42H383.5ZM384 -10.5H352V-9.5H384V-10.5ZM415.5 -42V-10H416.5V-42H415.5ZM416 -10.5H384V-9.5H416V-10.5ZM447.5 -42V-10H448.5V-42H447.5ZM448 -10.5H416V-9.5H448V-10.5ZM479.5 -42V-10H480.5V-42H479.5ZM480 -10.5H448V-9.5H480V-10.5ZM511.5 -42V-10H512.5V-42H511.5ZM512 -10.5H480V-9.5H512V-10.5ZM543.5 -42V-10H544.5V-42H543.5ZM544 -10.5H512V-9.5H544V-10.5ZM575.5 -42V-10H576.5V-42H575.5ZM576 -10.5H544V-9.5H576V-10.5ZM607.5 -42V-10H608.5V-42H607.5ZM608 -10.5H576V-9.5H608V-10.5ZM639.5 -42V-10H640.5V-42H639.5ZM640 -10.5H608V-9.5H640V-10.5ZM671.5 -42V-10H672.5V-42H671.5ZM672 -10.5H640V-9.5H672V-10.5ZM703.5 -42V-10H704.5V-42H703.5ZM704 -10.5H672V-9.5H704V-10.5ZM735.5 -42V-10H736.5V-42H735.5ZM736 -10.5H704V-9.5H736V-10.5ZM767.5 -42V-10H768.5V-42H767.5ZM768 -10.5H736V-9.5H768V-10.5ZM799.5 -42V-10H800.5V-42H799.5ZM800 -10.5H768V-9.5H800V-10.5ZM831.5 -42V-10H832.5V-42H831.5ZM832 -10.5H800V-9.5H832V-10.5ZM863.5 -42V-10H864.5V-42H863.5ZM864 -10.5H832V-9.5H864V-10.5ZM895.5 -42V-10H896.5V-42H895.5ZM896 -10.5H864V-9.5H896V-10.5ZM927.5 -42V-10H928.5V-42H927.5ZM928 -10.5H896V-9.5H928V-10.5ZM959.5 -42V-10H960.5V-42H959.5ZM960 -10.5H928V-9.5H960V-10.5ZM991.5 -42V-10H992.5V-42H991.5ZM992 -10.5H960V-9.5H992V-10.5ZM1023.5 -42V-10H1024.5V-42H1023.5ZM1024 -10.5H992V-9.5H1024V-10.5ZM1055.5 -42V-10H1056.5V-42H1055.5ZM1056 -10.5H1024V-9.5H1056V-10.5ZM1087.5 -42V-10H1088.5V-42H1087.5ZM1088 -10.5H1056V-9.5H1088V-10.5ZM1119.5 -42V-10H1120.5V-42H1119.5ZM1120 -10.5H1088V-9.5H1120V-10.5ZM1151.5 -42V-10H1152.5V-42H1151.5ZM1152 -10.5H1120V-9.5H1152V-10.5ZM1183.5 -42V-10H1184.5V-42H1183.5ZM1184 -10.5H1152V-9.5H1184V-10.5ZM1216 -10.5H1184V-9.5H1216V-10.5ZM31.5 -10V22H32.5V-10H31.5ZM32 21.5H0V22.5H32V21.5ZM63.5 -10V22H64.5V-10H63.5ZM64 21.5H32V22.5H64V21.5ZM95.5 -10V22H96.5V-10H95.5ZM96 21.5H64V22.5H96V21.5ZM127.5 -10V22H128.5V-10H127.5ZM128 21.5H96V22.5H128V21.5ZM159.5 -10V22H160.5V-10H159.5ZM160 21.5H128V22.5H160V21.5ZM191.5 -10V22H192.5V-10H191.5ZM192 21.5H160V22.5H192V21.5ZM223.5 -10V22H224.5V-10H223.5ZM224 21.5H192V22.5H224V21.5ZM255.5 -10V22H256.5V-10H255.5ZM256 21.5H224V22.5H256V21.5ZM287.5 -10V22H288.5V-10H287.5ZM288 21.5H256V22.5H288V21.5ZM319.5 -10V22H320.5V-10H319.5ZM320 21.5H288V22.5H320V21.5ZM351.5 -10V22H352.5V-10H351.5ZM352 21.5H320V22.5H352V21.5ZM383.5 -10V22H384.5V-10H383.5ZM384 21.5H352V22.5H384V21.5ZM415.5 -10V22H416.5V-10H415.5ZM416 21.5H384V22.5H416V21.5ZM447.5 -10V22H448.5V-10H447.5ZM448 21.5H416V22.5H448V21.5ZM479.5 -10V22H480.5V-10H479.5ZM480 21.5H448V22.5H480V21.5ZM511.5 -10V22H512.5V-10H511.5ZM512 21.5H480V22.5H512V21.5ZM543.5 -10V22H544.5V-10H543.5ZM544 21.5H512V22.5H544V21.5ZM575.5 -10V22H576.5V-10H575.5ZM576 21.5H544V22.5H576V21.5ZM607.5 -10V22H608.5V-10H607.5ZM608 21.5H576V22.5H608V21.5ZM639.5 -10V22H640.5V-10H639.5ZM640 21.5H608V22.5H640V21.5ZM671.5 -10V22H672.5V-10H671.5ZM672 21.5H640V22.5H672V21.5ZM703.5 -10V22H704.5V-10H703.5ZM704 21.5H672V22.5H704V21.5ZM735.5 -10V22H736.5V-10H735.5ZM736 21.5H704V22.5H736V21.5ZM767.5 -10V22H768.5V-10H767.5ZM768 21.5H736V22.5H768V21.5ZM799.5 -10V22H800.5V-10H799.5ZM800 21.5H768V22.5H800V21.5ZM831.5 -10V22H832.5V-10H831.5ZM832 21.5H800V22.5H832V21.5ZM863.5 -10V22H864.5V-10H863.5ZM864 21.5H832V22.5H864V21.5ZM895.5 -10V22H896.5V-10H895.5ZM896 21.5H864V22.5H896V21.5ZM927.5 -10V22H928.5V-10H927.5ZM928 21.5H896V22.5H928V21.5ZM959.5 -10V22H960.5V-10H959.5ZM960 21.5H928V22.5H960V21.5ZM991.5 -10V22H992.5V-10H991.5ZM992 21.5H960V22.5H992V21.5ZM1023.5 -10V22H1024.5V-10H1023.5ZM1024 21.5H992V22.5H1024V21.5ZM1055.5 -10V22H1056.5V-10H1055.5ZM1056 21.5H1024V22.5H1056V21.5ZM1087.5 -10V22H1088.5V-10H1087.5ZM1088 21.5H1056V22.5H1088V21.5ZM1119.5 -10V22H1120.5V-10H1119.5ZM1120 21.5H1088V22.5H1120V21.5ZM1151.5 -10V22H1152.5V-10H1151.5ZM1152 21.5H1120V22.5H1152V21.5ZM1183.5 -10V22H1184.5V-10H1183.5ZM1184 21.5H1152V22.5H1184V21.5ZM1216 21.5H1184V22.5H1216V21.5ZM31.5 22V54H32.5V22H31.5ZM32 53.5H0V54.5H32V53.5ZM63.5 22V54H64.5V22H63.5ZM64 53.5H32V54.5H64V53.5ZM95.5 22V54H96.5V22H95.5ZM96 53.5H64V54.5H96V53.5ZM127.5 22V54H128.5V22H127.5ZM128 53.5H96V54.5H128V53.5ZM159.5 22V54H160.5V22H159.5ZM160 53.5H128V54.5H160V53.5ZM191.5 22V54H192.5V22H191.5ZM192 53.5H160V54.5H192V53.5ZM223.5 22V54H224.5V22H223.5ZM224 53.5H192V54.5H224V53.5ZM255.5 22V54H256.5V22H255.5ZM256 53.5H224V54.5H256V53.5ZM287.5 22V54H288.5V22H287.5ZM288 53.5H256V54.5H288V53.5ZM319.5 22V54H320.5V22H319.5ZM320 53.5H288V54.5H320V53.5ZM351.5 22V54H352.5V22H351.5ZM352 53.5H320V54.5H352V53.5ZM383.5 22V54H384.5V22H383.5ZM384 53.5H352V54.5H384V53.5ZM415.5 22V54H416.5V22H415.5ZM416 53.5H384V54.5H416V53.5ZM447.5 22V54H448.5V22H447.5ZM448 53.5H416V54.5H448V53.5ZM479.5 22V54H480.5V22H479.5ZM480 53.5H448V54.5H480V53.5ZM511.5 22V54H512.5V22H511.5ZM512 53.5H480V54.5H512V53.5ZM543.5 22V54H544.5V22H543.5ZM544 53.5H512V54.5H544V53.5ZM575.5 22V54H576.5V22H575.5ZM576 53.5H544V54.5H576V53.5ZM607.5 22V54H608.5V22H607.5ZM608 53.5H576V54.5H608V53.5ZM639.5 22V54H640.5V22H639.5ZM640 53.5H608V54.5H640V53.5ZM671.5 22V54H672.5V22H671.5ZM672 53.5H640V54.5H672V53.5ZM703.5 22V54H704.5V22H703.5ZM704 53.5H672V54.5H704V53.5ZM735.5 22V54H736.5V22H735.5ZM736 53.5H704V54.5H736V53.5ZM767.5 22V54H768.5V22H767.5ZM768 53.5H736V54.5H768V53.5ZM799.5 22V54H800.5V22H799.5ZM800 53.5H768V54.5H800V53.5ZM831.5 22V54H832.5V22H831.5ZM832 53.5H800V54.5H832V53.5ZM863.5 22V54H864.5V22H863.5ZM864 53.5H832V54.5H864V53.5ZM895.5 22V54H896.5V22H895.5ZM896 53.5H864V54.5H896V53.5ZM927.5 22V54H928.5V22H927.5ZM928 53.5H896V54.5H928V53.5ZM959.5 22V54H960.5V22H959.5ZM960 53.5H928V54.5H960V53.5ZM991.5 22V54H992.5V22H991.5ZM992 53.5H960V54.5H992V53.5ZM1023.5 22V54H1024.5V22H1023.5ZM1024 53.5H992V54.5H1024V53.5ZM1055.5 22V54H1056.5V22H1055.5ZM1056 53.5H1024V54.5H1056V53.5ZM1087.5 22V54H1088.5V22H1087.5ZM1088 53.5H1056V54.5H1088V53.5ZM1119.5 22V54H1120.5V22H1119.5ZM1120 53.5H1088V54.5H1120V53.5ZM1151.5 22V54H1152.5V22H1151.5ZM1152 53.5H1120V54.5H1152V53.5ZM1183.5 22V54H1184.5V22H1183.5ZM1184 53.5H1152V54.5H1184V53.5ZM1216 53.5H1184V54.5H1216V53.5ZM31.5 54V86H32.5V54H31.5ZM32 85.5H0V86.5H32V85.5ZM63.5 54V86H64.5V54H63.5ZM64 85.5H32V86.5H64V85.5ZM95.5 54V86H96.5V54H95.5ZM96 85.5H64V86.5H96V85.5ZM127.5 54V86H128.5V54H127.5ZM128 85.5H96V86.5H128V85.5ZM159.5 54V86H160.5V54H159.5ZM160 85.5H128V86.5H160V85.5ZM191.5 54V86H192.5V54H191.5ZM192 85.5H160V86.5H192V85.5ZM223.5 54V86H224.5V54H223.5ZM224 85.5H192V86.5H224V85.5ZM255.5 54V86H256.5V54H255.5ZM256 85.5H224V86.5H256V85.5ZM287.5 54V86H288.5V54H287.5ZM288 85.5H256V86.5H288V85.5ZM319.5 54V86H320.5V54H319.5ZM320 85.5H288V86.5H320V85.5ZM351.5 54V86H352.5V54H351.5ZM352 85.5H320V86.5H352V85.5ZM383.5 54V86H384.5V54H383.5ZM384 85.5H352V86.5H384V85.5ZM415.5 54V86H416.5V54H415.5ZM416 85.5H384V86.5H416V85.5ZM447.5 54V86H448.5V54H447.5ZM448 85.5H416V86.5H448V85.5ZM479.5 54V86H480.5V54H479.5ZM480 85.5H448V86.5H480V85.5ZM511.5 54V86H512.5V54H511.5ZM512 85.5H480V86.5H512V85.5ZM543.5 54V86H544.5V54H543.5ZM544 85.5H512V86.5H544V85.5ZM575.5 54V86H576.5V54H575.5ZM576 85.5H544V86.5H576V85.5ZM607.5 54V86H608.5V54H607.5ZM608 85.5H576V86.5H608V85.5ZM639.5 54V86H640.5V54H639.5ZM640 85.5H608V86.5H640V85.5ZM671.5 54V86H672.5V54H671.5ZM672 85.5H640V86.5H672V85.5ZM703.5 54V86H704.5V54H703.5ZM704 85.5H672V86.5H704V85.5ZM735.5 54V86H736.5V54H735.5ZM736 85.5H704V86.5H736V85.5ZM767.5 54V86H768.5V54H767.5ZM768 85.5H736V86.5H768V85.5ZM799.5 54V86H800.5V54H799.5ZM800 85.5H768V86.5H800V85.5ZM831.5 54V86H832.5V54H831.5ZM832 85.5H800V86.5H832V85.5ZM863.5 54V86H864.5V54H863.5ZM864 85.5H832V86.5H864V85.5ZM895.5 54V86H896.5V54H895.5ZM896 85.5H864V86.5H896V85.5ZM927.5 54V86H928.5V54H927.5ZM928 85.5H896V86.5H928V85.5ZM959.5 54V86H960.5V54H959.5ZM960 85.5H928V86.5H960V85.5ZM991.5 54V86H992.5V54H991.5ZM992 85.5H960V86.5H992V85.5ZM1023.5 54V86H1024.5V54H1023.5ZM1024 85.5H992V86.5H1024V85.5ZM1055.5 54V86H1056.5V54H1055.5ZM1056 85.5H1024V86.5H1056V85.5ZM1087.5 54V86H1088.5V54H1087.5ZM1088 85.5H1056V86.5H1088V85.5ZM1119.5 54V86H1120.5V54H1119.5ZM1120 85.5H1088V86.5H1120V85.5ZM1151.5 54V86H1152.5V54H1151.5ZM1152 85.5H1120V86.5H1152V85.5ZM1183.5 54V86H1184.5V54H1183.5ZM1184 85.5H1152V86.5H1184V85.5ZM1216 85.5H1184V86.5H1216V85.5ZM31.5 86V118H32.5V86H31.5ZM32 117.5H0V118.5H32V117.5ZM63.5 86V118H64.5V86H63.5ZM64 117.5H32V118.5H64V117.5ZM95.5 86V118H96.5V86H95.5ZM96 117.5H64V118.5H96V117.5ZM127.5 86V118H128.5V86H127.5ZM128 117.5H96V118.5H128V117.5ZM159.5 86V118H160.5V86H159.5ZM160 117.5H128V118.5H160V117.5ZM191.5 86V118H192.5V86H191.5ZM192 117.5H160V118.5H192V117.5ZM223.5 86V118H224.5V86H223.5ZM224 117.5H192V118.5H224V117.5ZM255.5 86V118H256.5V86H255.5ZM256 117.5H224V118.5H256V117.5ZM287.5 86V118H288.5V86H287.5ZM288 117.5H256V118.5H288V117.5ZM319.5 86V118H320.5V86H319.5ZM320 117.5H288V118.5H320V117.5ZM351.5 86V118H352.5V86H351.5ZM352 117.5H320V118.5H352V117.5ZM383.5 86V118H384.5V86H383.5ZM384 117.5H352V118.5H384V117.5ZM415.5 86V118H416.5V86H415.5ZM416 117.5H384V118.5H416V117.5ZM447.5 86V118H448.5V86H447.5ZM448 117.5H416V118.5H448V117.5ZM479.5 86V118H480.5V86H479.5ZM480 117.5H448V118.5H480V117.5ZM511.5 86V118H512.5V86H511.5ZM512 117.5H480V118.5H512V117.5ZM543.5 86V118H544.5V86H543.5ZM544 117.5H512V118.5H544V117.5ZM575.5 86V118H576.5V86H575.5ZM576 117.5H544V118.5H576V117.5ZM607.5 86V118H608.5V86H607.5ZM608 117.5H576V118.5H608V117.5ZM639.5 86V118H640.5V86H639.5ZM640 117.5H608V118.5H640V117.5ZM671.5 86V118H672.5V86H671.5ZM672 117.5H640V118.5H672V117.5ZM703.5 86V118H704.5V86H703.5ZM704 117.5H672V118.5H704V117.5ZM735.5 86V118H736.5V86H735.5ZM736 117.5H704V118.5H736V117.5ZM767.5 86V118H768.5V86H767.5ZM768 117.5H736V118.5H768V117.5ZM799.5 86V118H800.5V86H799.5ZM800 117.5H768V118.5H800V117.5ZM831.5 86V118H832.5V86H831.5ZM832 117.5H800V118.5H832V117.5ZM863.5 86V118H864.5V86H863.5ZM864 117.5H832V118.5H864V117.5ZM895.5 86V118H896.5V86H895.5ZM896 117.5H864V118.5H896V117.5ZM927.5 86V118H928.5V86H927.5ZM928 117.5H896V118.5H928V117.5ZM959.5 86V118H960.5V86H959.5ZM960 117.5H928V118.5H960V117.5ZM991.5 86V118H992.5V86H991.5ZM992 117.5H960V118.5H992V117.5ZM1023.5 86V118H1024.5V86H1023.5ZM1024 117.5H992V118.5H1024V117.5ZM1055.5 86V118H1056.5V86H1055.5ZM1056 117.5H1024V118.5H1056V117.5ZM1087.5 86V118H1088.5V86H1087.5ZM1088 117.5H1056V118.5H1088V117.5ZM1119.5 86V118H1120.5V86H1119.5ZM1120 117.5H1088V118.5H1120V117.5ZM1151.5 86V118H1152.5V86H1151.5ZM1152 117.5H1120V118.5H1152V117.5ZM1183.5 86V118H1184.5V86H1183.5ZM1184 117.5H1152V118.5H1184V117.5ZM1216 117.5H1184V118.5H1216V117.5ZM31.5 118V150H32.5V118H31.5ZM32 149.5H0V150.5H32V149.5ZM63.5 118V150H64.5V118H63.5ZM64 149.5H32V150.5H64V149.5ZM95.5 118V150H96.5V118H95.5ZM96 149.5H64V150.5H96V149.5ZM127.5 118V150H128.5V118H127.5ZM128 149.5H96V150.5H128V149.5ZM159.5 118V150H160.5V118H159.5ZM160 149.5H128V150.5H160V149.5ZM191.5 118V150H192.5V118H191.5ZM192 149.5H160V150.5H192V149.5ZM223.5 118V150H224.5V118H223.5ZM224 149.5H192V150.5H224V149.5ZM255.5 118V150H256.5V118H255.5ZM256 149.5H224V150.5H256V149.5ZM287.5 118V150H288.5V118H287.5ZM288 149.5H256V150.5H288V149.5ZM319.5 118V150H320.5V118H319.5ZM320 149.5H288V150.5H320V149.5ZM351.5 118V150H352.5V118H351.5ZM352 149.5H320V150.5H352V149.5ZM383.5 118V150H384.5V118H383.5ZM384 149.5H352V150.5H384V149.5ZM415.5 118V150H416.5V118H415.5ZM416 149.5H384V150.5H416V149.5ZM447.5 118V150H448.5V118H447.5ZM448 149.5H416V150.5H448V149.5ZM479.5 118V150H480.5V118H479.5ZM480 149.5H448V150.5H480V149.5ZM511.5 118V150H512.5V118H511.5ZM512 149.5H480V150.5H512V149.5ZM543.5 118V150H544.5V118H543.5ZM544 149.5H512V150.5H544V149.5ZM575.5 118V150H576.5V118H575.5ZM576 149.5H544V150.5H576V149.5ZM607.5 118V150H608.5V118H607.5ZM608 149.5H576V150.5H608V149.5ZM639.5 118V150H640.5V118H639.5ZM640 149.5H608V150.5H640V149.5ZM671.5 118V150H672.5V118H671.5ZM672 149.5H640V150.5H672V149.5ZM703.5 118V150H704.5V118H703.5ZM704 149.5H672V150.5H704V149.5ZM735.5 118V150H736.5V118H735.5ZM736 149.5H704V150.5H736V149.5ZM767.5 118V150H768.5V118H767.5ZM768 149.5H736V150.5H768V149.5ZM799.5 118V150H800.5V118H799.5ZM800 149.5H768V150.5H800V149.5ZM831.5 118V150H832.5V118H831.5ZM832 149.5H800V150.5H832V149.5ZM863.5 118V150H864.5V118H863.5ZM864 149.5H832V150.5H864V149.5ZM895.5 118V150H896.5V118H895.5ZM896 149.5H864V150.5H896V149.5ZM927.5 118V150H928.5V118H927.5ZM928 149.5H896V150.5H928V149.5ZM959.5 118V150H960.5V118H959.5ZM960 149.5H928V150.5H960V149.5ZM991.5 118V150H992.5V118H991.5ZM992 149.5H960V150.5H992V149.5ZM1023.5 118V150H1024.5V118H1023.5ZM1024 149.5H992V150.5H1024V149.5ZM1055.5 118V150H1056.5V118H1055.5ZM1056 149.5H1024V150.5H1056V149.5ZM1087.5 118V150H1088.5V118H1087.5ZM1088 149.5H1056V150.5H1088V149.5ZM1119.5 118V150H1120.5V118H1119.5ZM1120 149.5H1088V150.5H1120V149.5ZM1151.5 118V150H1152.5V118H1151.5ZM1152 149.5H1120V150.5H1152V149.5ZM1183.5 118V150H1184.5V118H1183.5ZM1184 149.5H1152V150.5H1184V149.5ZM1216 149.5H1184V150.5H1216V149.5ZM31.5 150V182H32.5V150H31.5ZM32 181.5H0V182.5H32V181.5ZM63.5 150V182H64.5V150H63.5ZM64 181.5H32V182.5H64V181.5ZM95.5 150V182H96.5V150H95.5ZM96 181.5H64V182.5H96V181.5ZM127.5 150V182H128.5V150H127.5ZM128 181.5H96V182.5H128V181.5ZM159.5 150V182H160.5V150H159.5ZM160 181.5H128V182.5H160V181.5ZM191.5 150V182H192.5V150H191.5ZM192 181.5H160V182.5H192V181.5ZM223.5 150V182H224.5V150H223.5ZM224 181.5H192V182.5H224V181.5ZM255.5 150V182H256.5V150H255.5ZM256 181.5H224V182.5H256V181.5ZM287.5 150V182H288.5V150H287.5ZM288 181.5H256V182.5H288V181.5ZM319.5 150V182H320.5V150H319.5ZM320 181.5H288V182.5H320V181.5ZM351.5 150V182H352.5V150H351.5ZM352 181.5H320V182.5H352V181.5ZM383.5 150V182H384.5V150H383.5ZM384 181.5H352V182.5H384V181.5ZM415.5 150V182H416.5V150H415.5ZM416 181.5H384V182.5H416V181.5ZM447.5 150V182H448.5V150H447.5ZM448 181.5H416V182.5H448V181.5ZM479.5 150V182H480.5V150H479.5ZM480 181.5H448V182.5H480V181.5ZM511.5 150V182H512.5V150H511.5ZM512 181.5H480V182.5H512V181.5ZM543.5 150V182H544.5V150H543.5ZM544 181.5H512V182.5H544V181.5ZM575.5 150V182H576.5V150H575.5ZM576 181.5H544V182.5H576V181.5ZM607.5 150V182H608.5V150H607.5ZM608 181.5H576V182.5H608V181.5ZM639.5 150V182H640.5V150H639.5ZM640 181.5H608V182.5H640V181.5ZM671.5 150V182H672.5V150H671.5ZM672 181.5H640V182.5H672V181.5ZM703.5 150V182H704.5V150H703.5ZM704 181.5H672V182.5H704V181.5ZM735.5 150V182H736.5V150H735.5ZM736 181.5H704V182.5H736V181.5ZM767.5 150V182H768.5V150H767.5ZM768 181.5H736V182.5H768V181.5ZM799.5 150V182H800.5V150H799.5ZM800 181.5H768V182.5H800V181.5ZM831.5 150V182H832.5V150H831.5ZM832 181.5H800V182.5H832V181.5ZM863.5 150V182H864.5V150H863.5ZM864 181.5H832V182.5H864V181.5ZM895.5 150V182H896.5V150H895.5ZM896 181.5H864V182.5H896V181.5ZM927.5 150V182H928.5V150H927.5ZM928 181.5H896V182.5H928V181.5ZM959.5 150V182H960.5V150H959.5ZM960 181.5H928V182.5H960V181.5ZM991.5 150V182H992.5V150H991.5ZM992 181.5H960V182.5H992V181.5ZM1023.5 150V182H1024.5V150H1023.5ZM1024 181.5H992V182.5H1024V181.5ZM1055.5 150V182H1056.5V150H1055.5ZM1056 181.5H1024V182.5H1056V181.5ZM1087.5 150V182H1088.5V150H1087.5ZM1088 181.5H1056V182.5H1088V181.5ZM1119.5 150V182H1120.5V150H1119.5ZM1120 181.5H1088V182.5H1120V181.5ZM1151.5 150V182H1152.5V150H1151.5ZM1152 181.5H1120V182.5H1152V181.5ZM1183.5 150V182H1184.5V150H1183.5ZM1184 181.5H1152V182.5H1184V181.5ZM1216 181.5H1184V182.5H1216V181.5ZM31.5 182V214H32.5V182H31.5ZM32 213.5H0V214.5H32V213.5ZM63.5 182V214H64.5V182H63.5ZM64 213.5H32V214.5H64V213.5ZM95.5 182V214H96.5V182H95.5ZM96 213.5H64V214.5H96V213.5ZM127.5 182V214H128.5V182H127.5ZM128 213.5H96V214.5H128V213.5ZM159.5 182V214H160.5V182H159.5ZM160 213.5H128V214.5H160V213.5ZM191.5 182V214H192.5V182H191.5ZM192 213.5H160V214.5H192V213.5ZM223.5 182V214H224.5V182H223.5ZM224 213.5H192V214.5H224V213.5ZM255.5 182V214H256.5V182H255.5ZM256 213.5H224V214.5H256V213.5ZM287.5 182V214H288.5V182H287.5ZM288 213.5H256V214.5H288V213.5ZM319.5 182V214H320.5V182H319.5ZM320 213.5H288V214.5H320V213.5ZM351.5 182V214H352.5V182H351.5ZM352 213.5H320V214.5H352V213.5ZM383.5 182V214H384.5V182H383.5ZM384 213.5H352V214.5H384V213.5ZM415.5 182V214H416.5V182H415.5ZM416 213.5H384V214.5H416V213.5ZM447.5 182V214H448.5V182H447.5ZM448 213.5H416V214.5H448V213.5ZM479.5 182V214H480.5V182H479.5ZM480 213.5H448V214.5H480V213.5ZM511.5 182V214H512.5V182H511.5ZM512 213.5H480V214.5H512V213.5ZM543.5 182V214H544.5V182H543.5ZM544 213.5H512V214.5H544V213.5ZM575.5 182V214H576.5V182H575.5ZM576 213.5H544V214.5H576V213.5ZM607.5 182V214H608.5V182H607.5ZM608 213.5H576V214.5H608V213.5ZM639.5 182V214H640.5V182H639.5ZM640 213.5H608V214.5H640V213.5ZM671.5 182V214H672.5V182H671.5ZM672 213.5H640V214.5H672V213.5ZM703.5 182V214H704.5V182H703.5ZM704 213.5H672V214.5H704V213.5ZM735.5 182V214H736.5V182H735.5ZM736 213.5H704V214.5H736V213.5ZM767.5 182V214H768.5V182H767.5ZM768 213.5H736V214.5H768V213.5ZM799.5 182V214H800.5V182H799.5ZM800 213.5H768V214.5H800V213.5ZM831.5 182V214H832.5V182H831.5ZM832 213.5H800V214.5H832V213.5ZM863.5 182V214H864.5V182H863.5ZM864 213.5H832V214.5H864V213.5ZM895.5 182V214H896.5V182H895.5ZM896 213.5H864V214.5H896V213.5ZM927.5 182V214H928.5V182H927.5ZM928 213.5H896V214.5H928V213.5ZM959.5 182V214H960.5V182H959.5ZM960 213.5H928V214.5H960V213.5ZM991.5 182V214H992.5V182H991.5ZM992 213.5H960V214.5H992V213.5ZM1023.5 182V214H1024.5V182H1023.5ZM1024 213.5H992V214.5H1024V213.5ZM1055.5 182V214H1056.5V182H1055.5ZM1056 213.5H1024V214.5H1056V213.5ZM1087.5 182V214H1088.5V182H1087.5ZM1088 213.5H1056V214.5H1088V213.5ZM1119.5 182V214H1120.5V182H1119.5ZM1120 213.5H1088V214.5H1120V213.5ZM1151.5 182V214H1152.5V182H1151.5ZM1152 213.5H1120V214.5H1152V213.5ZM1183.5 182V214H1184.5V182H1183.5ZM1184 213.5H1152V214.5H1184V213.5ZM1216 213.5H1184V214.5H1216V213.5ZM31.5 214V246H32.5V214H31.5ZM32 245.5H0V246.5H32V245.5ZM63.5 214V246H64.5V214H63.5ZM64 245.5H32V246.5H64V245.5ZM95.5 214V246H96.5V214H95.5ZM96 245.5H64V246.5H96V245.5ZM127.5 214V246H128.5V214H127.5ZM128 245.5H96V246.5H128V245.5ZM159.5 214V246H160.5V214H159.5ZM160 245.5H128V246.5H160V245.5ZM191.5 214V246H192.5V214H191.5ZM192 245.5H160V246.5H192V245.5ZM223.5 214V246H224.5V214H223.5ZM224 245.5H192V246.5H224V245.5ZM255.5 214V246H256.5V214H255.5ZM256 245.5H224V246.5H256V245.5ZM287.5 214V246H288.5V214H287.5ZM288 245.5H256V246.5H288V245.5ZM319.5 214V246H320.5V214H319.5ZM320 245.5H288V246.5H320V245.5ZM351.5 214V246H352.5V214H351.5ZM352 245.5H320V246.5H352V245.5ZM383.5 214V246H384.5V214H383.5ZM384 245.5H352V246.5H384V245.5ZM415.5 214V246H416.5V214H415.5ZM416 245.5H384V246.5H416V245.5ZM447.5 214V246H448.5V214H447.5ZM448 245.5H416V246.5H448V245.5ZM479.5 214V246H480.5V214H479.5ZM480 245.5H448V246.5H480V245.5ZM511.5 214V246H512.5V214H511.5ZM512 245.5H480V246.5H512V245.5ZM543.5 214V246H544.5V214H543.5ZM544 245.5H512V246.5H544V245.5ZM575.5 214V246H576.5V214H575.5ZM576 245.5H544V246.5H576V245.5ZM607.5 214V246H608.5V214H607.5ZM608 245.5H576V246.5H608V245.5ZM639.5 214V246H640.5V214H639.5ZM640 245.5H608V246.5H640V245.5ZM671.5 214V246H672.5V214H671.5ZM672 245.5H640V246.5H672V245.5ZM703.5 214V246H704.5V214H703.5ZM704 245.5H672V246.5H704V245.5ZM735.5 214V246H736.5V214H735.5ZM736 245.5H704V246.5H736V245.5ZM767.5 214V246H768.5V214H767.5ZM768 245.5H736V246.5H768V245.5ZM799.5 214V246H800.5V214H799.5ZM800 245.5H768V246.5H800V245.5ZM831.5 214V246H832.5V214H831.5ZM832 245.5H800V246.5H832V245.5ZM863.5 214V246H864.5V214H863.5ZM864 245.5H832V246.5H864V245.5ZM895.5 214V246H896.5V214H895.5ZM896 245.5H864V246.5H896V245.5ZM927.5 214V246H928.5V214H927.5ZM928 245.5H896V246.5H928V245.5ZM959.5 214V246H960.5V214H959.5ZM960 245.5H928V246.5H960V245.5ZM991.5 214V246H992.5V214H991.5ZM992 245.5H960V246.5H992V245.5ZM1023.5 214V246H1024.5V214H1023.5ZM1024 245.5H992V246.5H1024V245.5ZM1055.5 214V246H1056.5V214H1055.5ZM1056 245.5H1024V246.5H1056V245.5ZM1087.5 214V246H1088.5V214H1087.5ZM1088 245.5H1056V246.5H1088V245.5ZM1119.5 214V246H1120.5V214H1119.5ZM1120 245.5H1088V246.5H1120V245.5ZM1151.5 214V246H1152.5V214H1151.5ZM1152 245.5H1120V246.5H1152V245.5ZM1183.5 214V246H1184.5V214H1183.5ZM1184 245.5H1152V246.5H1184V245.5ZM1216 245.5H1184V246.5H1216V245.5ZM31.5 246V278H32.5V246H31.5ZM32 277.5H0V278.5H32V277.5ZM63.5 246V278H64.5V246H63.5ZM64 277.5H32V278.5H64V277.5ZM95.5 246V278H96.5V246H95.5ZM96 277.5H64V278.5H96V277.5ZM127.5 246V278H128.5V246H127.5ZM128 277.5H96V278.5H128V277.5ZM159.5 246V278H160.5V246H159.5ZM160 277.5H128V278.5H160V277.5ZM191.5 246V278H192.5V246H191.5ZM192 277.5H160V278.5H192V277.5ZM223.5 246V278H224.5V246H223.5ZM224 277.5H192V278.5H224V277.5ZM255.5 246V278H256.5V246H255.5ZM256 277.5H224V278.5H256V277.5ZM287.5 246V278H288.5V246H287.5ZM288 277.5H256V278.5H288V277.5ZM319.5 246V278H320.5V246H319.5ZM320 277.5H288V278.5H320V277.5ZM351.5 246V278H352.5V246H351.5ZM352 277.5H320V278.5H352V277.5ZM383.5 246V278H384.5V246H383.5ZM384 277.5H352V278.5H384V277.5ZM415.5 246V278H416.5V246H415.5ZM416 277.5H384V278.5H416V277.5ZM447.5 246V278H448.5V246H447.5ZM448 277.5H416V278.5H448V277.5ZM479.5 246V278H480.5V246H479.5ZM480 277.5H448V278.5H480V277.5ZM511.5 246V278H512.5V246H511.5ZM512 277.5H480V278.5H512V277.5ZM543.5 246V278H544.5V246H543.5ZM544 277.5H512V278.5H544V277.5ZM575.5 246V278H576.5V246H575.5ZM576 277.5H544V278.5H576V277.5ZM607.5 246V278H608.5V246H607.5ZM608 277.5H576V278.5H608V277.5ZM639.5 246V278H640.5V246H639.5ZM640 277.5H608V278.5H640V277.5ZM671.5 246V278H672.5V246H671.5ZM672 277.5H640V278.5H672V277.5ZM703.5 246V278H704.5V246H703.5ZM704 277.5H672V278.5H704V277.5ZM735.5 246V278H736.5V246H735.5ZM736 277.5H704V278.5H736V277.5ZM767.5 246V278H768.5V246H767.5ZM768 277.5H736V278.5H768V277.5ZM799.5 246V278H800.5V246H799.5ZM800 277.5H768V278.5H800V277.5ZM831.5 246V278H832.5V246H831.5ZM832 277.5H800V278.5H832V277.5ZM863.5 246V278H864.5V246H863.5ZM864 277.5H832V278.5H864V277.5ZM895.5 246V278H896.5V246H895.5ZM896 277.5H864V278.5H896V277.5ZM927.5 246V278H928.5V246H927.5ZM928 277.5H896V278.5H928V277.5ZM959.5 246V278H960.5V246H959.5ZM960 277.5H928V278.5H960V277.5ZM991.5 246V278H992.5V246H991.5ZM992 277.5H960V278.5H992V277.5ZM1023.5 246V278H1024.5V246H1023.5ZM1024 277.5H992V278.5H1024V277.5ZM1055.5 246V278H1056.5V246H1055.5ZM1056 277.5H1024V278.5H1056V277.5ZM1087.5 246V278H1088.5V246H1087.5ZM1088 277.5H1056V278.5H1088V277.5ZM1119.5 246V278H1120.5V246H1119.5ZM1120 277.5H1088V278.5H1120V277.5ZM1151.5 246V278H1152.5V246H1151.5ZM1152 277.5H1120V278.5H1152V277.5ZM1183.5 246V278H1184.5V246H1183.5ZM1184 277.5H1152V278.5H1184V277.5ZM1216 277.5H1184V278.5H1216V277.5ZM31.5 278V310H32.5V278H31.5ZM32 309.5H0V310.5H32V309.5ZM63.5 278V310H64.5V278H63.5ZM64 309.5H32V310.5H64V309.5ZM95.5 278V310H96.5V278H95.5ZM96 309.5H64V310.5H96V309.5ZM127.5 278V310H128.5V278H127.5ZM128 309.5H96V310.5H128V309.5ZM159.5 278V310H160.5V278H159.5ZM160 309.5H128V310.5H160V309.5ZM191.5 278V310H192.5V278H191.5ZM192 309.5H160V310.5H192V309.5ZM223.5 278V310H224.5V278H223.5ZM224 309.5H192V310.5H224V309.5ZM255.5 278V310H256.5V278H255.5ZM256 309.5H224V310.5H256V309.5ZM287.5 278V310H288.5V278H287.5ZM288 309.5H256V310.5H288V309.5ZM319.5 278V310H320.5V278H319.5ZM320 309.5H288V310.5H320V309.5ZM351.5 278V310H352.5V278H351.5ZM352 309.5H320V310.5H352V309.5ZM383.5 278V310H384.5V278H383.5ZM384 309.5H352V310.5H384V309.5ZM415.5 278V310H416.5V278H415.5ZM416 309.5H384V310.5H416V309.5ZM447.5 278V310H448.5V278H447.5ZM448 309.5H416V310.5H448V309.5ZM479.5 278V310H480.5V278H479.5ZM480 309.5H448V310.5H480V309.5ZM511.5 278V310H512.5V278H511.5ZM512 309.5H480V310.5H512V309.5ZM543.5 278V310H544.5V278H543.5ZM544 309.5H512V310.5H544V309.5ZM575.5 278V310H576.5V278H575.5ZM576 309.5H544V310.5H576V309.5ZM607.5 278V310H608.5V278H607.5ZM608 309.5H576V310.5H608V309.5ZM639.5 278V310H640.5V278H639.5ZM640 309.5H608V310.5H640V309.5ZM671.5 278V310H672.5V278H671.5ZM672 309.5H640V310.5H672V309.5ZM703.5 278V310H704.5V278H703.5ZM704 309.5H672V310.5H704V309.5ZM735.5 278V310H736.5V278H735.5ZM736 309.5H704V310.5H736V309.5ZM767.5 278V310H768.5V278H767.5ZM768 309.5H736V310.5H768V309.5ZM799.5 278V310H800.5V278H799.5ZM800 309.5H768V310.5H800V309.5ZM831.5 278V310H832.5V278H831.5ZM832 309.5H800V310.5H832V309.5ZM863.5 278V310H864.5V278H863.5ZM864 309.5H832V310.5H864V309.5ZM895.5 278V310H896.5V278H895.5ZM896 309.5H864V310.5H896V309.5ZM927.5 278V310H928.5V278H927.5ZM928 309.5H896V310.5H928V309.5ZM959.5 278V310H960.5V278H959.5ZM960 309.5H928V310.5H960V309.5ZM991.5 278V310H992.5V278H991.5ZM992 309.5H960V310.5H992V309.5ZM1023.5 278V310H1024.5V278H1023.5ZM1024 309.5H992V310.5H1024V309.5ZM1055.5 278V310H1056.5V278H1055.5ZM1056 309.5H1024V310.5H1056V309.5ZM1087.5 278V310H1088.5V278H1087.5ZM1088 309.5H1056V310.5H1088V309.5ZM1119.5 278V310H1120.5V278H1119.5ZM1120 309.5H1088V310.5H1120V309.5ZM1151.5 278V310H1152.5V278H1151.5ZM1152 309.5H1120V310.5H1152V309.5ZM1183.5 278V310H1184.5V278H1183.5ZM1184 309.5H1152V310.5H1184V309.5ZM1216 309.5H1184V310.5H1216V309.5ZM31.5 310V342H32.5V310H31.5ZM32 341.5H0V342.5H32V341.5ZM63.5 310V342H64.5V310H63.5ZM64 341.5H32V342.5H64V341.5ZM95.5 310V342H96.5V310H95.5ZM96 341.5H64V342.5H96V341.5ZM127.5 310V342H128.5V310H127.5ZM128 341.5H96V342.5H128V341.5ZM159.5 310V342H160.5V310H159.5ZM160 341.5H128V342.5H160V341.5ZM191.5 310V342H192.5V310H191.5ZM192 341.5H160V342.5H192V341.5ZM223.5 310V342H224.5V310H223.5ZM224 341.5H192V342.5H224V341.5ZM255.5 310V342H256.5V310H255.5ZM256 341.5H224V342.5H256V341.5ZM287.5 310V342H288.5V310H287.5ZM288 341.5H256V342.5H288V341.5ZM319.5 310V342H320.5V310H319.5ZM320 341.5H288V342.5H320V341.5ZM351.5 310V342H352.5V310H351.5ZM352 341.5H320V342.5H352V341.5ZM383.5 310V342H384.5V310H383.5ZM384 341.5H352V342.5H384V341.5ZM415.5 310V342H416.5V310H415.5ZM416 341.5H384V342.5H416V341.5ZM447.5 310V342H448.5V310H447.5ZM448 341.5H416V342.5H448V341.5ZM479.5 310V342H480.5V310H479.5ZM480 341.5H448V342.5H480V341.5ZM511.5 310V342H512.5V310H511.5ZM512 341.5H480V342.5H512V341.5ZM543.5 310V342H544.5V310H543.5ZM544 341.5H512V342.5H544V341.5ZM575.5 310V342H576.5V310H575.5ZM576 341.5H544V342.5H576V341.5ZM607.5 310V342H608.5V310H607.5ZM608 341.5H576V342.5H608V341.5ZM639.5 310V342H640.5V310H639.5ZM640 341.5H608V342.5H640V341.5ZM671.5 310V342H672.5V310H671.5ZM672 341.5H640V342.5H672V341.5ZM703.5 310V342H704.5V310H703.5ZM704 341.5H672V342.5H704V341.5ZM735.5 310V342H736.5V310H735.5ZM736 341.5H704V342.5H736V341.5ZM767.5 310V342H768.5V310H767.5ZM768 341.5H736V342.5H768V341.5ZM799.5 310V342H800.5V310H799.5ZM800 341.5H768V342.5H800V341.5ZM831.5 310V342H832.5V310H831.5ZM832 341.5H800V342.5H832V341.5ZM863.5 310V342H864.5V310H863.5ZM864 341.5H832V342.5H864V341.5ZM895.5 310V342H896.5V310H895.5ZM896 341.5H864V342.5H896V341.5ZM927.5 310V342H928.5V310H927.5ZM928 341.5H896V342.5H928V341.5ZM959.5 310V342H960.5V310H959.5ZM960 341.5H928V342.5H960V341.5ZM991.5 310V342H992.5V310H991.5ZM992 341.5H960V342.5H992V341.5ZM1023.5 310V342H1024.5V310H1023.5ZM1024 341.5H992V342.5H1024V341.5ZM1055.5 310V342H1056.5V310H1055.5ZM1056 341.5H1024V342.5H1056V341.5ZM1087.5 310V342H1088.5V310H1087.5ZM1088 341.5H1056V342.5H1088V341.5ZM1119.5 310V342H1120.5V310H1119.5ZM1120 341.5H1088V342.5H1120V341.5ZM1151.5 310V342H1152.5V310H1151.5ZM1152 341.5H1120V342.5H1152V341.5ZM1183.5 310V342H1184.5V310H1183.5ZM1184 341.5H1152V342.5H1184V341.5ZM1216 341.5H1184V342.5H1216V341.5ZM31.5 342V374H32.5V342H31.5ZM32 373.5H0V374.5H32V373.5ZM63.5 342V374H64.5V342H63.5ZM64 373.5H32V374.5H64V373.5ZM95.5 342V374H96.5V342H95.5ZM96 373.5H64V374.5H96V373.5ZM127.5 342V374H128.5V342H127.5ZM128 373.5H96V374.5H128V373.5ZM159.5 342V374H160.5V342H159.5ZM160 373.5H128V374.5H160V373.5ZM191.5 342V374H192.5V342H191.5ZM192 373.5H160V374.5H192V373.5ZM223.5 342V374H224.5V342H223.5ZM224 373.5H192V374.5H224V373.5ZM255.5 342V374H256.5V342H255.5ZM256 373.5H224V374.5H256V373.5ZM287.5 342V374H288.5V342H287.5ZM288 373.5H256V374.5H288V373.5ZM319.5 342V374H320.5V342H319.5ZM320 373.5H288V374.5H320V373.5ZM351.5 342V374H352.5V342H351.5ZM352 373.5H320V374.5H352V373.5ZM383.5 342V374H384.5V342H383.5ZM384 373.5H352V374.5H384V373.5ZM415.5 342V374H416.5V342H415.5ZM416 373.5H384V374.5H416V373.5ZM447.5 342V374H448.5V342H447.5ZM448 373.5H416V374.5H448V373.5ZM479.5 342V374H480.5V342H479.5ZM480 373.5H448V374.5H480V373.5ZM511.5 342V374H512.5V342H511.5ZM512 373.5H480V374.5H512V373.5ZM543.5 342V374H544.5V342H543.5ZM544 373.5H512V374.5H544V373.5ZM575.5 342V374H576.5V342H575.5ZM576 373.5H544V374.5H576V373.5ZM607.5 342V374H608.5V342H607.5ZM608 373.5H576V374.5H608V373.5ZM639.5 342V374H640.5V342H639.5ZM640 373.5H608V374.5H640V373.5ZM671.5 342V374H672.5V342H671.5ZM672 373.5H640V374.5H672V373.5ZM703.5 342V374H704.5V342H703.5ZM704 373.5H672V374.5H704V373.5ZM735.5 342V374H736.5V342H735.5ZM736 373.5H704V374.5H736V373.5ZM767.5 342V374H768.5V342H767.5ZM768 373.5H736V374.5H768V373.5ZM799.5 342V374H800.5V342H799.5ZM800 373.5H768V374.5H800V373.5ZM831.5 342V374H832.5V342H831.5ZM832 373.5H800V374.5H832V373.5ZM863.5 342V374H864.5V342H863.5ZM864 373.5H832V374.5H864V373.5ZM895.5 342V374H896.5V342H895.5ZM896 373.5H864V374.5H896V373.5ZM927.5 342V374H928.5V342H927.5ZM928 373.5H896V374.5H928V373.5ZM959.5 342V374H960.5V342H959.5ZM960 373.5H928V374.5H960V373.5ZM991.5 342V374H992.5V342H991.5ZM992 373.5H960V374.5H992V373.5ZM1023.5 342V374H1024.5V342H1023.5ZM1024 373.5H992V374.5H1024V373.5ZM1055.5 342V374H1056.5V342H1055.5ZM1056 373.5H1024V374.5H1056V373.5ZM1087.5 342V374H1088.5V342H1087.5ZM1088 373.5H1056V374.5H1088V373.5ZM1119.5 342V374H1120.5V342H1119.5ZM1120 373.5H1088V374.5H1120V373.5ZM1151.5 342V374H1152.5V342H1151.5ZM1152 373.5H1120V374.5H1152V373.5ZM1183.5 342V374H1184.5V342H1183.5ZM1184 373.5H1152V374.5H1184V373.5ZM1216 373.5H1184V374.5H1216V373.5ZM31.5 374V406H32.5V374H31.5ZM63.5 374V406H64.5V374H63.5ZM95.5 374V406H96.5V374H95.5ZM127.5 374V406H128.5V374H127.5ZM159.5 374V406H160.5V374H159.5ZM191.5 374V406H192.5V374H191.5ZM223.5 374V406H224.5V374H223.5ZM255.5 374V406H256.5V374H255.5ZM287.5 374V406H288.5V374H287.5ZM319.5 374V406H320.5V374H319.5ZM351.5 374V406H352.5V374H351.5ZM383.5 374V406H384.5V374H383.5ZM415.5 374V406H416.5V374H415.5ZM447.5 374V406H448.5V374H447.5ZM479.5 374V406H480.5V374H479.5ZM511.5 374V406H512.5V374H511.5ZM543.5 374V406H544.5V374H543.5ZM575.5 374V406H576.5V374H575.5ZM607.5 374V406H608.5V374H607.5ZM639.5 374V406H640.5V374H639.5ZM671.5 374V406H672.5V374H671.5ZM703.5 374V406H704.5V374H703.5ZM735.5 374V406H736.5V374H735.5ZM767.5 374V406H768.5V374H767.5ZM799.5 374V406H800.5V374H799.5ZM831.5 374V406H832.5V374H831.5ZM863.5 374V406H864.5V374H863.5ZM895.5 374V406H896.5V374H895.5ZM927.5 374V406H928.5V374H927.5ZM959.5 374V406H960.5V374H959.5ZM991.5 374V406H992.5V374H991.5ZM1023.5 374V406H1024.5V374H1023.5ZM1055.5 374V406H1056.5V374H1055.5ZM1087.5 374V406H1088.5V374H1087.5ZM1119.5 374V406H1120.5V374H1119.5ZM1151.5 374V406H1152.5V374H1151.5ZM1183.5 374V406H1184.5V374H1183.5ZM0 -106V-107H-1V-106H0ZM1216 -106H1217V-107H1216V-106ZM0 406H-1V407H0V406ZM1216 406V407H1217V406H1216ZM0 -105H32V-107H0V-105ZM1 -74V-106H-1V-74H1ZM32 -105H64V-107H32V-105ZM64 -105H96V-107H64V-105ZM96 -105H128V-107H96V-105ZM128 -105H160V-107H128V-105ZM160 -105H192V-107H160V-105ZM192 -105H224V-107H192V-105ZM224 -105H256V-107H224V-105ZM256 -105H288V-107H256V-105ZM288 -105H320V-107H288V-105ZM320 -105H352V-107H320V-105ZM352 -105H384V-107H352V-105ZM384 -105H416V-107H384V-105ZM416 -105H448V-107H416V-105ZM448 -105H480V-107H448V-105ZM480 -105H512V-107H480V-105ZM512 -105H544V-107H512V-105ZM544 -105H576V-107H544V-105ZM576 -105H608V-107H576V-105ZM608 -105H640V-107H608V-105ZM640 -105H672V-107H640V-105ZM672 -105H704V-107H672V-105ZM704 -105H736V-107H704V-105ZM736 -105H768V-107H736V-105ZM768 -105H800V-107H768V-105ZM800 -105H832V-107H800V-105ZM832 -105H864V-107H832V-105ZM864 -105H896V-107H864V-105ZM896 -105H928V-107H896V-105ZM928 -105H960V-107H928V-105ZM960 -105H992V-107H960V-105ZM992 -105H1024V-107H992V-105ZM1024 -105H1056V-107H1024V-105ZM1056 -105H1088V-107H1056V-105ZM1088 -105H1120V-107H1088V-105ZM1120 -105H1152V-107H1120V-105ZM1152 -105H1184V-107H1152V-105ZM1184 -105H1216V-107H1184V-105ZM1215 -106V-74H1217V-106H1215ZM1 -42V-74H-1V-42H1ZM1215 -74V-42H1217V-74H1215ZM1 -10V-42H-1V-10H1ZM1215 -42V-10H1217V-42H1215ZM1 22V-10H-1V22H1ZM1215 -10V22H1217V-10H1215ZM1 54V22H-1V54H1ZM1215 22V54H1217V22H1215ZM1 86V54H-1V86H1ZM1215 54V86H1217V54H1215ZM1 118V86H-1V118H1ZM1215 86V118H1217V86H1215ZM1 150V118H-1V150H1ZM1215 118V150H1217V118H1215ZM1 182V150H-1V182H1ZM1215 150V182H1217V150H1215ZM1 214V182H-1V214H1ZM1215 182V214H1217V182H1215ZM1 246V214H-1V246H1ZM1215 214V246H1217V214H1215ZM1 278V246H-1V278H1ZM1215 246V278H1217V246H1215ZM1 310V278H-1V310H1ZM1215 278V310H1217V278H1215ZM1 342V310H-1V342H1ZM1215 310V342H1217V310H1215ZM1 374V342H-1V374H1ZM1215 342V374H1217V342H1215ZM32 405H0V407H32V405ZM1 406V374H-1V406H1ZM64 405H32V407H64V405ZM96 405H64V407H96V405ZM128 405H96V407H128V405ZM160 405H128V407H160V405ZM192 405H160V407H192V405ZM224 405H192V407H224V405ZM256 405H224V407H256V405ZM288 405H256V407H288V405ZM320 405H288V407H320V405ZM352 405H320V407H352V405ZM384 405H352V407H384V405ZM416 405H384V407H416V405ZM448 405H416V407H448V405ZM480 405H448V407H480V405ZM512 405H480V407H512V405ZM544 405H512V407H544V405ZM576 405H544V407H576V405ZM608 405H576V407H608V405ZM640 405H608V407H640V405ZM672 405H640V407H672V405ZM704 405H672V407H704V405ZM736 405H704V407H736V405ZM768 405H736V407H768V405ZM800 405H768V407H800V405ZM832 405H800V407H832V405ZM864 405H832V407H864V405ZM896 405H864V407H896V405ZM928 405H896V407H928V405ZM960 405H928V407H960V405ZM992 405H960V407H992V405ZM1024 405H992V407H1024V405ZM1056 405H1024V407H1056V405ZM1088 405H1056V407H1088V405ZM1120 405H1088V407H1120V405ZM1152 405H1120V407H1152V405ZM1184 405H1152V407H1184V405ZM1215 374V406H1217V374H1215ZM1216 405H1184V407H1216V405Z" fill="url(#paint0_radial_1819_4897)" mask="url(#path-1-inside-1_1819_4897)"/>
</g>
</g>
<defs>
<radialGradient id="paint0_radial_1819_4897" cx="0" cy="0" r="1" gradientUnits="userSpaceOnUse" gradientTransform="translate(925 -106) rotate(161.565) scale(809.543 3557.35)">
<stop stop-color="#E2E6F3"/>
<stop offset="1" stop-color="#E2E6F3" stop-opacity="0"/>
</radialGradient>
<clipPath id="clip0_1819_4897">
<rect width="1216" height="320" fill="white"/>
</clipPath>
</defs>
</svg>
