<svg width="519" height="367" viewBox="0 0 519 367" fill="none" xmlns="http://www.w3.org/2000/svg">
<path d="M264.493 302.001C287.424 302.001 306.013 283.376 306.013 260.401C306.013 237.426 287.424 218.801 264.493 218.801C241.562 218.801 222.973 237.426 222.973 260.401C222.973 283.376 241.562 302.001 264.493 302.001Z" fill="#EF492D"/>
<path d="M265.489 233.301C266.886 233.501 268.383 233.701 269.98 233.901C270.38 233.901 270.479 234.101 270.28 234.501C269.282 236.501 268.284 238.601 267.286 240.601C266.687 241.901 266.088 243.201 265.489 244.501C265.389 244.801 265.19 245.001 264.79 245.001C259.9 245.201 255.908 247.401 252.913 251.201C251.316 253.201 250.318 255.501 249.919 258.101C249.52 260.601 249.62 263.101 250.518 265.501C252.314 270.401 255.608 273.701 260.598 275.301C263.593 276.201 266.587 276.401 269.581 275.501C271.478 274.901 273.274 274.001 274.871 272.701C275.37 272.301 275.37 272.301 275.769 272.901C277.466 275.901 279.163 278.901 280.959 281.801C281.259 282.401 281.259 282.401 280.76 282.801C278.664 284.201 276.368 285.401 273.973 286.201C272.076 286.901 270.08 287.201 267.984 287.501C266.288 287.701 264.491 287.701 262.794 287.501C258.702 287.001 254.81 285.701 251.217 283.501C246.426 280.601 242.933 276.601 240.737 271.401C239.539 268.601 238.84 265.701 238.541 262.701C238.242 259.801 238.441 256.901 239.14 254.001C239.938 250.601 241.535 247.501 243.531 244.701C245.228 242.401 247.025 240.401 249.32 238.701C253.013 236.001 257.105 234.301 261.497 233.601C262.694 233.501 263.992 233.401 265.489 233.301Z" fill="white"/>
<path d="M284.251 279.702C282.554 276.802 280.957 273.902 279.26 271.102C278.761 270.302 278.262 269.502 277.863 268.602C277.663 268.302 277.364 268.202 277.064 268.202C275.368 268.202 273.771 268.202 272.074 268.202C269.679 268.202 267.283 268.202 264.888 268.202C264.688 268.202 264.588 268.202 264.289 268.202C264.588 267.602 264.888 267.102 265.187 266.602C266.984 263.402 268.88 260.302 270.677 257.102C270.876 256.702 271.276 256.602 271.675 256.602C273.571 256.602 275.567 256.602 277.464 256.602C279.46 256.602 281.456 256.602 283.452 256.602C284.051 256.602 284.45 256.802 284.75 257.302C286.746 260.802 288.842 264.302 290.838 267.802C290.938 268.002 290.938 268.302 290.838 268.502C290.039 269.902 289.241 271.402 288.343 272.802C287.145 274.902 285.947 277.002 284.75 279.102C284.55 279.302 284.45 279.502 284.251 279.702Z" fill="white"/>
<path d="M275.571 241.002C275.072 240.602 274.473 240.202 273.974 239.702C272.976 238.702 272.976 239.002 273.874 237.802C275.172 236.102 276.968 235.302 279.064 235.202C280.761 235.102 282.458 235.702 283.755 236.802C285.851 238.602 285.851 242.102 283.656 244.002C282.957 244.602 282.258 245.002 281.56 245.502C280.661 246.002 279.763 246.502 278.865 247.102C278.266 247.502 277.767 248.002 277.467 248.602C277.168 249.202 277.268 249.402 277.967 249.402C280.162 249.402 282.458 249.402 284.654 249.402C285.352 249.402 285.352 249.402 285.352 250.102C285.352 250.802 285.352 251.502 285.352 252.102C285.352 252.502 285.252 252.702 284.753 252.702C281.759 252.702 278.765 252.702 275.771 252.702C275.172 252.702 274.473 252.702 273.874 252.702C273.276 252.702 273.176 252.702 273.176 252.002C273.176 250.402 273.475 248.802 274.274 247.302C275.172 245.702 276.569 244.602 278.066 243.702C278.965 243.202 279.863 242.702 280.761 242.102C281.26 241.802 281.659 241.302 281.759 240.702C281.959 239.502 281.061 238.602 279.763 238.502C278.066 238.402 276.769 239.102 275.871 240.502C275.771 240.702 275.671 240.902 275.571 241.102C275.571 241.102 275.571 241.102 275.571 241.002Z" fill="white"/>
<path d="M95.9162 65.1992L108.093 89.8992L135.34 93.7992L115.578 113.099L120.269 140.199L95.9162 127.399L71.5631 140.199L76.2541 113.099L56.4922 93.7992L83.7397 89.8992L95.9162 65.1992Z" fill="#EF492D"/>
<path d="M180.152 65.1992L192.329 89.8992L219.576 93.7992L199.914 113.099L204.505 140.199L180.152 127.399L155.899 140.199L160.49 113.099L140.828 93.7992L167.976 89.8992L180.152 65.1992Z" fill="#EF492D"/>
<path d="M264.49 65.1992L276.667 89.8992L303.815 93.7992L284.153 113.099L288.844 140.199L264.49 127.399L240.137 140.199L244.729 113.099L225.066 93.7992L252.314 89.8992L264.49 65.1992Z" fill="#EF492D"/>
<path d="M348.727 65.1992L360.903 89.8992L388.151 93.7992L368.389 113.099L373.08 140.199L348.727 127.399L324.373 140.199L329.064 113.099L309.402 93.7992L336.55 89.8992L348.727 65.1992Z" fill="#EF492D"/>
<path d="M433.069 65.1992L445.145 89.8992L472.393 93.7992L452.731 113.099L457.322 140.199L433.069 127.399L408.715 140.199L413.307 113.099L393.645 93.7992L420.892 89.8992L433.069 65.1992Z" fill="#EF492D"/>
</svg>
