<svg width="19" height="36" viewBox="0 0 19 36" fill="none" xmlns="http://www.w3.org/2000/svg">
<path d="M14.9114 2.20312C14.099 2.75442 13.2012 3.43711 12.4776 4.19856C11.1938 5.54957 9.92048 7.07265 8.82613 8.59659C8.08685 9.62608 7.1277 11.1883 6.60366 12.3374C5.90629 13.8667 5.49323 14.9381 5.11047 16.6183C4.57128 18.9853 4.64563 21.4145 5.19327 23.7047C5.999 27.074 8.57769 29.893 11.1546 32.1814C13.1705 33.9714 15.8807 35.1425 18.2621 36.0027L18.5081 35.3457C16.1486 34.4939 13.6477 33.356 11.7157 31.6384C9.23041 29.4286 6.93487 26.7339 5.94466 23.5227C5.34155 21.568 5.20155 19.4234 5.518 17.3465C5.79522 15.5272 6.49212 13.7038 7.171 12.046C7.72913 10.6831 8.37988 9.6215 9.17365 8.50332C10.1801 7.0855 11.286 5.70283 12.4617 4.44033C13.2227 3.62311 14.2405 2.88532 15.0579 2.33061L14.9114 2.20312Z" fill="black" fill-opacity="0.28"/>
<path d="M13.8719 33.9918C13.8719 33.9918 12.1993 33.4576 10.8719 33.615C8.76458 33.8648 8.57031 35.1866 8.57031 35.1866C8.57031 35.1866 9.41573 35.7169 11.229 35.5154C13.3532 35.2793 13.8718 33.9918 13.8718 33.9918L13.8719 33.9918Z" fill="black" fill-opacity="0.28"/>
<path d="M11.0265 32.0172C11.0265 32.0172 9.61694 31.3417 8.2805 31.3517C5.96684 31.369 5.82812 32.6106 5.82812 32.6106C5.82812 32.6106 6.66558 33.2211 8.51859 33.196C10.6555 33.167 11.0265 32.0172 11.0265 32.0172Z" fill="black" fill-opacity="0.28"/>
<path d="M8.92127 29.9462C8.92127 29.9462 7.58097 28.7593 6.28458 28.4311C4.04025 27.863 3.29688 29.1824 3.29688 29.1824C3.29688 29.1824 4.13113 30.1937 5.93139 30.6378C8.00741 31.15 8.92127 29.9462 8.92127 29.9462Z" fill="black" fill-opacity="0.28"/>
<path d="M6.54257 26.7474C6.54257 26.7474 5.39636 25.5266 3.8273 25.0396C1.77963 24.4039 0.817151 25.6519 0.789062 25.6831C0.789062 25.6831 1.62812 26.7501 3.37868 27.2179C5.72675 27.8454 6.54257 26.7474 6.54257 26.7474Z" fill="black" fill-opacity="0.28"/>
<path d="M5.41127 24.197C5.41127 24.197 4.34377 22.5546 2.75156 21.7794C1.20487 21.0259 0.0749192 21.6675 0.046875 21.6927C0.046875 21.6927 0.841401 23.1597 2.30317 23.8627C4.28924 24.8179 5.4115 24.1969 5.4115 24.1969L5.41127 24.197Z" fill="black" fill-opacity="0.28"/>
<path d="M5.06641 21.9645C4.49664 21.423 4.4542 19.951 3.6398 18.7565C2.50368 17.0901 0.629607 17.2109 0.601562 17.2266C0.601562 17.2266 0.802192 19.3027 2.22293 20.5576C3.73282 21.8911 5.06637 21.9647 5.06637 21.9647L5.06641 21.9645Z" fill="black" fill-opacity="0.28"/>
<path d="M4.90357 18.4699C4.90357 18.4699 4.95888 16.6654 4.4879 15.2951C3.83089 13.3835 2.03735 13.0082 2.00619 13.0157C2.00619 13.0157 1.71533 15.0598 2.75498 16.6509C3.85991 18.3419 4.90359 18.4698 4.90359 18.4698L4.90357 18.4699Z" fill="black" fill-opacity="0.28"/>
<path d="M5.66634 15.0864C5.66634 15.0864 6.02409 13.5715 5.84285 12.1326C5.56969 9.96379 3.89931 9.50469 3.8674 9.50783C3.8674 9.50783 3.29479 11.5166 4.1094 13.2363C4.97512 15.064 5.66634 15.0864 5.66634 15.0864Z" fill="black" fill-opacity="0.28"/>
<path d="M7.13623 11.4533C7.13623 11.4533 7.71796 10.083 7.64343 8.63437C7.53997 6.62394 6.19166 5.77461 6.15966 5.77344C6.15966 5.77344 4.85963 6.95776 5.60629 9.50705C6.05922 11.0534 7.13628 11.4533 7.13628 11.4533L7.13623 11.4533Z" fill="black" fill-opacity="0.28"/>
<path d="M9.00715 8.47371C9.00715 8.47371 9.87163 7.12827 10.1108 5.69796C10.3353 4.35517 9.79611 2.89226 9.67574 2.75781C9.67574 2.75781 8.26909 3.38244 8.32176 5.77964C8.35718 7.39195 9.00715 8.47371 9.00715 8.47371Z" fill="black" fill-opacity="0.28"/>
<path d="M11.3032 5.58841C11.3032 5.58841 12.3339 4.4794 12.6024 2.963C12.8246 1.70638 12.6006 0.340828 12.3664 0C12.3664 0 11.022 0.843987 10.9243 2.97841C10.8506 4.58937 11.1965 5.35612 11.3032 5.58859L11.3032 5.58841Z" fill="black" fill-opacity="0.28"/>
<path d="M12.9766 3.81984C12.9766 3.81984 14.9409 3.89155 15.9172 3.31884C17.0101 2.67778 18.0825 1.28631 18.1671 0.880099C18.1671 0.880099 16.4466 0.117839 14.8425 1.5102C13.6317 2.56107 13.0708 3.58198 12.9766 3.81984Z" fill="black" fill-opacity="0.28"/>
<path d="M10.8125 6.21693C10.8125 6.21693 11.7521 5.10545 13.3667 4.81828C14.6112 4.59696 15.568 4.80131 16.1822 5.16294C16.1822 5.16294 15.2346 6.38965 13.4183 6.55876C11.8288 6.70672 11.046 6.31693 10.8125 6.21693L10.8125 6.21693Z" fill="black" fill-opacity="0.28"/>
<path d="M8.86723 8.77659C8.86723 8.77659 9.76189 7.71046 11.3765 7.42334C12.621 7.20202 13.2186 7.42905 13.8329 7.79068C13.8329 7.79068 13.076 8.96072 11.2597 9.12979C9.67029 9.27774 9.1007 8.87661 8.86719 8.77661L8.86723 8.77659Z" fill="black" fill-opacity="0.28"/>
<path d="M6.98438 12.1217C6.98438 12.1217 7.82015 10.8077 9.33138 10.1656C10.8799 9.50753 11.6753 9.82173 12.3414 10.0729C12.1289 10.3948 11.2597 11.7367 9.85044 12.1395C8.31459 12.5785 7.23126 12.1803 6.98438 12.1217Z" fill="black" fill-opacity="0.28"/>
<path d="M5.86719 15.0853C5.86719 15.0853 6.6078 13.7143 8.06966 12.9646C9.56769 12.1963 10.3832 12.4522 11.0654 12.6546C10.8763 12.9911 10.1043 14.3923 8.72716 14.8959C7.22629 15.4448 6.11759 15.1259 5.86719 15.0853Z" fill="black" fill-opacity="0.28"/>
<path d="M5.28125 18.6214C5.92218 17.7911 6.27062 16.8985 7.25674 16.0102C8.47167 14.9157 9.51415 15.2646 10.2217 15.3353C9.87337 15.9963 9.35042 17.0418 8.26967 17.8296C6.97519 18.7731 5.53476 18.6142 5.28125 18.6214V18.6214Z" fill="black" fill-opacity="0.28"/>
<path d="M5.35938 21.8677C5.90435 20.9702 6.16297 20.2707 7.04452 19.2764C8.1306 18.0515 9.16028 18.269 9.87116 18.2592C9.59825 18.9554 9.13828 19.9968 8.15153 20.9018C6.96967 21.9857 5.61044 21.8319 5.35938 21.8677Z" fill="black" fill-opacity="0.28"/>
<path d="M6.0625 24.4678C6.8824 23.1889 6.77894 22.8994 7.58142 21.839C8.44328 20.7001 9.53185 20.7314 10.2397 20.6641C10.0229 21.3801 9.699 22.3488 8.78025 23.3241C7.80049 24.3642 6.78138 24.2303 6.06254 24.4678H6.0625Z" fill="black" fill-opacity="0.28"/>
<path d="M7.40625 27.0056C7.92313 25.8741 7.83389 25.1675 8.30784 24.3654C9.08304 23.0536 9.84298 22.997 10.5508 22.9297C9.98623 24.564 10.1169 24.5716 9.49543 25.567C8.89068 26.5357 8.06896 26.666 7.40625 27.0056V27.0056Z" fill="black" fill-opacity="0.28"/>
<path d="M9.03125 29.1431C9.32583 27.9329 9.02672 27.5626 9.34116 26.6841C9.85542 25.2473 10.5909 25.0458 11.2731 24.8438C11.1946 25.8083 11.3131 26.4202 10.778 27.4656C10.4002 28.2038 9.618 28.6824 9.03125 29.1431Z" fill="black" fill-opacity="0.28"/>
<path d="M12.3069 26.7657C12.3069 26.7657 12.8977 27.9181 12.7015 29.2538C12.4234 31.1462 11.4225 31.4298 11.4225 31.4298C11.4225 31.4298 10.8524 30.5696 10.9104 28.8243C10.9723 26.96 12.307 26.7656 12.307 26.7656L12.3069 26.7657Z" fill="black" fill-opacity="0.28"/>
<path d="M14.4389 28.6953C14.4389 28.6953 15.0302 29.8621 14.9009 31.2061C14.7351 32.9285 13.8015 33.3594 13.8015 33.3594C13.8015 33.3594 13.2134 32.3979 13.1883 30.9468C13.1501 28.7309 14.439 28.6954 14.439 28.6954L14.4389 28.6953Z" fill="black" fill-opacity="0.28"/>
</svg>
