<svg width="19" height="36" viewBox="0 0 19 36" fill="none" xmlns="http://www.w3.org/2000/svg">
<path d="M4.08863 2.20312C4.90098 2.75442 5.79879 3.43711 6.52239 4.19856C7.80624 5.54957 9.07952 7.07265 10.1739 8.59659C10.9132 9.62608 11.8723 11.1883 12.3963 12.3374C13.0937 13.8667 13.5068 14.9381 13.8895 16.6183C14.4287 18.9853 14.3544 21.4145 13.8067 23.7047C13.001 27.074 10.4223 29.893 7.84544 32.1814C5.82955 33.9714 3.11926 35.1425 0.737948 36.0027L0.491893 35.3457C2.85143 34.4939 5.3523 33.356 7.28428 31.6384C9.76959 29.4286 12.0651 26.7339 13.0553 23.5227C13.6584 21.568 13.7984 19.4234 13.482 17.3465C13.2048 15.5272 12.5079 13.7038 11.829 12.046C11.2709 10.6831 10.6201 9.6215 9.82635 8.50332C8.81991 7.0855 7.71396 5.70283 6.53833 4.44033C5.77731 3.62311 4.75955 2.88532 3.94213 2.33061L4.08863 2.20312Z" fill="black" fill-opacity="0.28"/>
<path d="M5.12813 33.9918C5.12813 33.9918 6.80074 33.4576 8.12811 33.615C10.2354 33.8648 10.4297 35.1866 10.4297 35.1866C10.4297 35.1866 9.58427 35.7169 7.771 35.5154C5.64675 35.2793 5.12818 33.9918 5.12818 33.9918L5.12813 33.9918Z" fill="black" fill-opacity="0.28"/>
<path d="M7.97348 32.0172C7.97348 32.0172 9.38306 31.3417 10.7195 31.3517C13.0332 31.369 13.1719 32.6106 13.1719 32.6106C13.1719 32.6106 12.3344 33.2211 10.4814 33.196C8.34454 33.167 7.97348 32.0172 7.97348 32.0172Z" fill="black" fill-opacity="0.28"/>
<path d="M10.0787 29.9462C10.0787 29.9462 11.419 28.7593 12.7154 28.4311C14.9598 27.863 15.7031 29.1824 15.7031 29.1824C15.7031 29.1824 14.8689 30.1937 13.0686 30.6378C10.9926 31.15 10.0787 29.9462 10.0787 29.9462Z" fill="black" fill-opacity="0.28"/>
<path d="M12.4574 26.7474C12.4574 26.7474 13.6036 25.5266 15.1727 25.0396C17.2204 24.4039 18.1828 25.6519 18.2109 25.6831C18.2109 25.6831 17.3719 26.7501 15.6213 27.2179C13.2732 27.8454 12.4574 26.7474 12.4574 26.7474Z" fill="black" fill-opacity="0.28"/>
<path d="M13.5887 24.197C13.5887 24.197 14.6562 22.5546 16.2484 21.7794C17.7951 21.0259 18.9251 21.6675 18.9531 21.6927C18.9531 21.6927 18.1586 23.1597 16.6968 23.8627C14.7108 24.8179 13.5885 24.1969 13.5885 24.1969L13.5887 24.197Z" fill="black" fill-opacity="0.28"/>
<path d="M13.9336 21.9645C14.5034 21.423 14.5458 19.951 15.3602 18.7565C16.4963 17.0901 18.3704 17.2109 18.3984 17.2266C18.3984 17.2266 18.1978 19.3027 16.7771 20.5576C15.2672 21.8911 13.9336 21.9647 13.9336 21.9647L13.9336 21.9645Z" fill="black" fill-opacity="0.28"/>
<path d="M14.0964 18.4699C14.0964 18.4699 14.0411 16.6654 14.5121 15.2951C15.1691 13.3835 16.9627 13.0082 16.9938 13.0157C16.9938 13.0157 17.2847 15.0598 16.245 16.6509C15.1401 18.3419 14.0964 18.4698 14.0964 18.4698L14.0964 18.4699Z" fill="black" fill-opacity="0.28"/>
<path d="M13.3337 15.0864C13.3337 15.0864 12.9759 13.5715 13.1571 12.1326C13.4303 9.96379 15.1007 9.50469 15.1326 9.50783C15.1326 9.50783 15.7052 11.5166 14.8906 13.2363C14.0249 15.064 13.3337 15.0864 13.3337 15.0864Z" fill="black" fill-opacity="0.28"/>
<path d="M11.8638 11.4533C11.8638 11.4533 11.282 10.083 11.3566 8.63437C11.46 6.62394 12.8083 5.77461 12.8403 5.77344C12.8403 5.77344 14.1404 6.95776 13.3937 9.50705C12.9408 11.0534 11.8637 11.4533 11.8637 11.4533L11.8638 11.4533Z" fill="black" fill-opacity="0.28"/>
<path d="M9.99285 8.47371C9.99285 8.47371 9.12837 7.12827 8.88922 5.69796C8.6647 4.35517 9.20389 2.89226 9.32426 2.75781C9.32426 2.75781 10.7309 3.38244 10.6782 5.77964C10.6428 7.39195 9.99285 8.47371 9.99285 8.47371Z" fill="black" fill-opacity="0.28"/>
<path d="M7.69684 5.58841C7.69684 5.58841 6.66609 4.4794 6.39761 2.963C6.17539 1.70638 6.39939 0.340828 6.63361 0C6.63361 0 7.97804 0.843987 8.07573 2.97841C8.14945 4.58937 7.80345 5.35612 7.69683 5.58859L7.69684 5.58841Z" fill="black" fill-opacity="0.28"/>
<path d="M6.02344 3.81984C6.02344 3.81984 4.05905 3.89155 3.08275 3.31884C1.98992 2.67778 0.917481 1.28631 0.832859 0.880099C0.832859 0.880099 2.55338 0.117839 4.15754 1.5102C5.36829 2.56107 5.92917 3.58198 6.02344 3.81984Z" fill="black" fill-opacity="0.28"/>
<path d="M8.18746 6.21693C8.18746 6.21693 7.24786 5.10545 5.6333 4.81828C4.38878 4.59696 3.43203 4.80131 2.81777 5.16294C2.81777 5.16294 3.7654 6.38965 5.58174 6.55876C7.17115 6.70672 7.95399 6.31693 8.1875 6.21693L8.18746 6.21693Z" fill="black" fill-opacity="0.28"/>
<path d="M10.1328 8.77659C10.1328 8.77659 9.23811 7.71046 7.6235 7.42334C6.37898 7.20202 5.78138 7.42905 5.16712 7.79068C5.16712 7.79068 5.92396 8.96072 7.7403 9.12979C9.32971 9.27774 9.8993 8.87661 10.1328 8.77661L10.1328 8.77659Z" fill="black" fill-opacity="0.28"/>
<path d="M12.0156 12.1217C12.0156 12.1217 11.1799 10.8077 9.66862 10.1656C8.12006 9.50753 7.32469 9.82173 6.65865 10.0729C6.87105 10.3948 7.74028 11.7367 9.14956 12.1395C10.6854 12.5785 11.7687 12.1803 12.0156 12.1217Z" fill="black" fill-opacity="0.28"/>
<path d="M13.1328 15.0853C13.1328 15.0853 12.3922 13.7143 10.9303 12.9646C9.43231 12.1963 8.61676 12.4522 7.93463 12.6546C8.1237 12.9911 8.89569 14.3923 10.2728 14.8959C11.7737 15.4448 12.8824 15.1259 13.1328 15.0853Z" fill="black" fill-opacity="0.28"/>
<path d="M13.7188 18.6214C13.0778 17.7911 12.7294 16.8985 11.7433 16.0102C10.5283 14.9157 9.48585 15.2646 8.77835 15.3353C9.12663 15.9963 9.64958 17.0418 10.7303 17.8296C12.0248 18.7731 13.4652 18.6142 13.7188 18.6214V18.6214Z" fill="black" fill-opacity="0.28"/>
<path d="M13.6406 21.8677C13.0957 20.9702 12.837 20.2707 11.9555 19.2764C10.8694 18.0515 9.83972 18.269 9.12884 18.2592C9.40175 18.9554 9.86172 19.9968 10.8485 20.9018C12.0303 21.9857 13.3896 21.8319 13.6406 21.8677Z" fill="black" fill-opacity="0.28"/>
<path d="M12.9375 24.4678C12.1176 23.1889 12.2211 22.8994 11.4186 21.839C10.5567 20.7001 9.46815 20.7314 8.76034 20.6641C8.9771 21.3801 9.301 22.3488 10.2197 23.3241C11.1995 24.3642 12.2186 24.2303 12.9375 24.4678H12.9375Z" fill="black" fill-opacity="0.28"/>
<path d="M11.5938 27.0056C11.0769 25.8741 11.1661 25.1675 10.6922 24.3654C9.91696 23.0536 9.15702 22.997 8.4492 22.9297C9.01377 24.564 8.88306 24.5716 9.50457 25.567C10.1093 26.5357 10.931 26.666 11.5938 27.0056V27.0056Z" fill="black" fill-opacity="0.28"/>
<path d="M9.96875 29.1431C9.67417 27.9329 9.97328 27.5626 9.65884 26.6841C9.14458 25.2473 8.40912 25.0458 7.7269 24.8438C7.80535 25.8083 7.68691 26.4202 8.22197 27.4656C8.59981 28.2038 9.382 28.6824 9.96875 29.1431Z" fill="black" fill-opacity="0.28"/>
<path d="M6.69306 26.7657C6.69306 26.7657 6.10226 27.9181 6.29852 29.2538C6.57655 31.1462 7.57748 31.4298 7.57748 31.4298C7.57748 31.4298 8.14757 30.5696 8.08961 28.8243C8.02773 26.96 6.69305 26.7656 6.69305 26.7656L6.69306 26.7657Z" fill="black" fill-opacity="0.28"/>
<path d="M4.56105 28.6953C4.56105 28.6953 3.96981 29.8621 4.09915 31.2061C4.26494 32.9285 5.19852 33.3594 5.19852 33.3594C5.19852 33.3594 5.7866 32.3979 5.81167 30.9468C5.84991 28.7309 4.56101 28.6954 4.56101 28.6954L4.56105 28.6953Z" fill="black" fill-opacity="0.28"/>
</svg>
