<?xml version="1.0" encoding="utf-8"?>
<!-- Generator: Adobe Illustrator 27.3.1, SVG Export Plug-In . SVG Version: 6.00 Build 0)  -->
<svg version="1.1" id="Layer_1" xmlns="http://www.w3.org/2000/svg" xmlns:xlink="http://www.w3.org/1999/xlink" x="0px" y="0px"
	 viewBox="0 0 766 367.2" style="enable-background:new 0 0 766 367.2;" xml:space="preserve">
<style type="text/css">
	.st0{fill:#00B67A;}
	.st1{fill:#FFFFFF;}
	.st2{fill:#DCDCE7;}
	.st3{fill:#00B579;}
	.st4{fill:#00522C;}
</style>
<g>
	<g>
		<rect x="442.2" y="42.6" class="st0" width="116.1" height="116.1"/>
		<g>
			<polygon class="st1" points="519.3,118 527.2,142.2 500.2,122.6 			"/>
			<polyline class="st1" points="516.9,110.5 500.2,122.6 473.2,142.2 483.5,110.5 456.5,90.9 489.9,90.9 500.2,59.1 510.5,90.9 
				543.9,90.9 516.9,110.5 			"/>
		</g>
	</g>
	<g>
		<rect x="315" y="42.6" class="st0" width="116.1" height="116.1"/>
		<g>
			<polygon class="st1" points="392.2,118 400.1,142.2 373.1,122.6 			"/>
			<polyline class="st1" points="389.7,110.5 373.1,122.6 346.1,142.2 356.4,110.5 329.4,90.9 362.8,90.9 373.1,59.1 383.4,90.9 
				416.7,90.9 389.7,110.5 			"/>
		</g>
	</g>
	<g>
		<rect x="187.9" y="42.6" class="st0" width="116.1" height="116.1"/>
		<g>
			<polygon class="st1" points="265.1,118 272.9,142.2 245.9,122.6 			"/>
			<polyline class="st1" points="262.6,110.5 245.9,122.6 218.9,142.2 229.3,110.5 202.3,90.9 235.6,90.9 245.9,59.1 256.2,90.9 
				289.6,90.9 262.6,110.5 			"/>
		</g>
	</g>
	<g>
		<rect x="58.2" y="41.4" class="st0" width="116.1" height="116.1"/>
		<g>
			<polygon class="st1" points="135.4,116.7 143.3,140.9 116.3,121.3 			"/>
			<polyline class="st1" points="132.9,109.2 116.3,121.3 89.3,140.9 99.6,109.2 72.6,89.6 106,89.6 116.3,57.9 126.6,89.6 
				159.9,89.6 132.9,109.2 			"/>
		</g>
	</g>
	<g>
		<rect x="569.9" y="42.6" class="st0" width="58" height="116.1"/>
		<rect x="627.9" y="42.6" class="st2" width="58" height="116.1"/>
		<g>
			<polygon class="st1" points="647.1,118 654.9,142.2 627.9,122.6 			"/>
			<polyline class="st1" points="644.6,110.5 627.9,122.6 601,142.2 611.3,110.5 584.3,90.9 617.6,90.9 627.9,59.1 638.3,90.9 
				671.6,90.9 644.6,110.5 			"/>
		</g>
	</g>
	<g>
		<path class="st1" d="M443.6,261.6c3,0,5.9,0,9,0c0.1,1.9,0,3.8,0,5.8c0.2-0.1,0.3-0.1,0.4-0.2c2.1-3.7,5.5-5.7,9.6-6.4
			c4.3-0.8,8.6-0.5,12.6,1.3c4.6,2,7.8,5.4,9.6,10c3.2,8,3.2,16.1-0.2,24.1c-2.1,4.8-5.6,8.3-10.7,9.9s-10.1,1.1-15-1.2
			c-1.9-0.9-3.5-2.3-4.8-4c-0.1-0.2-0.3-0.4-0.4-0.6c0,0-0.1,0-0.2-0.1c-0.1,1.4,0,2.8-0.1,4.2c0,1.5,0,2.9,0,4.4c0,1.4,0,2.9,0,4.3
			c0,1.5,0,2.9,0,4.4c0,1.4,0,2.8,0,4.4c-3.3,0-6.4,0-9.7,0C443.6,301.8,443.6,281.8,443.6,261.6z M477.5,283.9
			c0-3.8-0.9-7.4-2.6-10.1c-3.3-5.1-8.2-6.7-14.2-4.8c-3.3,1.1-5.2,3.6-6.4,6.6c-1.2,3.2-1.5,6.5-1.3,9.8c0.2,2.7,0.8,5.3,2,7.6
			c4.1,7.6,14.5,8.3,19.5,1.7c0.9-1.2,1.6-2.6,2-4C477.2,288.5,477.5,286.2,477.5,283.9z"/>
		<path class="st1" d="M574.9,283.6c0,4.1-0.7,7.8-2.4,11.4c-2.5,5.5-6.6,9.1-12.3,10.8c-4.9,1.5-9.9,1.6-14.8,0.1
			c-6.5-2-11.1-6.1-13.3-12.6c-2.3-6.4-2.4-12.9,0-19.4c2.7-7.2,7.9-11.5,15.3-13c4.6-0.9,9.1-0.8,13.5,0.8
			c6.8,2.5,11,7.3,12.9,14.2C574.5,278.5,574.9,281.1,574.9,283.6z M565,283.7c0-0.7,0.1-1.4,0-2.1c-0.3-2.8-0.9-5.5-2.5-7.9
			c-3.2-5-8.6-6.6-13.7-4.9c-3.7,1.2-6,3.9-7.4,7.4c-1.1,2.7-1.4,5.5-1.3,8.4c0.1,2.6,0.6,5.2,1.7,7.5c2.1,4.2,5.3,6.8,10.1,7.1
			c3.7,0.2,6.8-1,9.3-3.8c1-1.1,1.8-2.4,2.4-3.8C564.7,289,565.1,286.4,565,283.7z"/>
		<path class="st1" d="M368.8,291.5c3.3,0,6.4,0,9.7,0c0.1,0.4,0.2,0.8,0.3,1.2c0.6,2.7,2.1,4.7,4.8,5.6c1.3,0.4,2.7,0.7,4.1,0.9
			c2.1,0.2,4.2-0.1,6.3-0.7c0.8-0.2,1.7-0.6,2.4-1.1c2.7-1.8,2.9-5.5,0.3-7.5c-1.2-0.9-2.5-1.6-3.9-2c-2.7-0.7-5.3-1.2-8-1.9
			c-2-0.5-4-1-6-1.6c-1.1-0.4-2.2-0.9-3.2-1.5c-4.4-2.6-6-6.6-5.6-11.6c0.3-2.8,1.7-5,3.8-6.8c1.8-1.5,3.8-2.6,6.1-3.2
			c5.4-1.5,10.9-1.6,16.4-0.1c3.7,1.1,6.7,3.2,8.7,6.6c1,1.7,1.6,3.6,1.8,5.8c-3.4,0.1-6.7,0-10,0.1c-0.2-0.6-0.4-1.1-0.5-1.5
			c-0.6-1.7-1.7-2.8-3.4-3.5c-3.3-1.2-6.7-1.2-10.1-0.1c-0.6,0.2-1.2,0.6-1.8,1c-1.9,1.3-1.7,4.3-0.3,5.6c1.1,1,2.4,1.7,3.8,2.1
			c2.3,0.6,4.6,1.1,6.9,1.7c2.7,0.7,5.3,1.4,7.9,2.1c2.1,0.6,4,1.8,5.5,3.4c1.9,1.9,2.9,4.2,3.1,6.9c0.4,5.6-2.2,9.6-6.9,12.4
			c-2.6,1.5-5.6,2.3-8.6,2.7c-4.5,0.6-9,0.4-13.3-1.1c-2.1-0.7-4-1.7-5.7-3.2c-3.1-2.7-4.5-6.2-4.7-10.2
			C368.8,291.9,368.8,291.8,368.8,291.5z"/>
		<path class="st1" d="M274.1,305.6c-3.6,0-7,0-10.6,0c0-17.2,0-34.4,0-51.6c-6.5,0-12.8,0-19.1,0c-0.3-1-0.3-7.1-0.1-9
			c0.8-0.3,47.5-0.4,49.1-0.1c0.2,0.8,0.3,7.4,0.1,9c-1.5,0.1-3.1,0-4.7,0s-3.3,0-4.9,0s-3.2,0-4.8,0c-1.6,0-3.2,0-4.9,0
			c0,1.6,0,3.1,0,4.7s0,3.2,0,4.8c0,1.6,0,3.1,0,4.7s0,3.1,0,4.7s0,3.2,0,4.8c0,1.6,0,3.1,0,4.7s0,3.2,0,4.8c0,1.6,0,3.1,0,4.7
			s0,3.1,0,4.7s0,3.2,0,4.8C274.1,302.5,274.1,304,274.1,305.6z"/>
		<path class="st1" d="M352.4,261.6c3.3,0,6.5,0,9.7,0c0,14.7,0,29.3,0,44.1c-3.1,0-6.2,0-9.5,0c-0.2-2,0-4-0.2-6.1
			c-0.2,0.3-0.3,0.4-0.4,0.5c-3.5,5.1-8.5,7.3-14.6,6.7c-1.7-0.1-3.3-0.4-4.9-0.9c-3.8-1.1-6.3-3.5-7.8-7.1
			c-0.9-2.1-1.3-4.3-1.4-6.5c-0.1-1.1-0.1-2.3-0.1-3.5c0-8.6,0-17.2,0-25.8c0-0.5,0-0.9,0-1.5c3.3,0,6.4,0,9.7,0
			c0,0.5,0.1,0.9,0.1,1.4c0,8.3,0,16.5,0,24.8c0,1.6,0.1,3.2,0.4,4.7c0.7,4,2.8,6.1,6.9,6.6c2.4,0.3,4.8,0,7-1.1
			c3-1.5,4.5-4.1,5-7.3c0.2-1.4,0.3-2.8,0.3-4.2c0-7.8,0-15.7,0-23.5C352.4,262.7,352.4,262.2,352.4,261.6z"/>
		<path class="st1" d="M595,268.7c0,0.5-0.1,0.9-0.1,1.3c0,7.3,0,14.6,0,21.8c0,1,0.1,2,0.2,3c0.2,2.2,1.3,3.3,3.5,3.4
			c1.3,0.1,2.5-0.1,3.8-0.1c0.4,0,0.7-0.1,1.1-0.1c0.3,0.8,0.3,5.7,0.1,7.5c-1.1,0.1-2.2,0.3-3.3,0.3c-2.7,0.2-5.5,0.2-8.2-0.4
			c-0.3-0.1-0.7-0.2-1-0.3c-3.2-1-5.1-3.2-5.5-6.5c-0.2-1.7-0.4-3.5-0.4-5.2c0-7.7,0-15.4,0-23.1c0-0.5,0-0.9,0-1.6
			c-2.5,0-4.8,0-7.2,0c-0.3-1-0.3-5.7-0.1-7.2c2.3,0,4.7,0,7.2,0c0-2.3,0-4.5,0-6.8c0-2.2,0-4.3,0-6.6c3.3,0,6.4,0,9.7,0
			c0,4.4,0,8.7,0,13.2c3,0,5.8,0,8.7,0c0,2.4,0,4.7,0,7.2c-1.4,0.1-2.8,0-4.2,0C598,268.7,596.6,268.7,595,268.7z"/>
		<path class="st1" d="M418.1,248.3c3.3,0,6.4,0,9.6,0c0.2,1.5,0.1,2.9,0.1,4.4c0,1.4,0,2.9,0,4.3c0,1.5,0,2.9,0,4.5
			c3,0,5.8,0,8.7,0c0,2.4,0,4.7,0,7.2c-2.8,0.1-5.7,0-8.6,0.1c0,0.4-0.1,0.8-0.1,1.2c0,7.4,0,14.7,0,22.1c0,1.2,0.1,2.5,0.3,3.7
			c0.2,1.4,1.1,2.3,2.5,2.5c1.5,0.1,2.9,0.1,4.4,0.1c0.4,0,0.9-0.1,1.3-0.2c0.2,0.9,0.3,5.9,0.1,7.5c-1,0.1-2.1,0.2-3.1,0.3
			c-2.8,0.2-5.6,0.2-8.3-0.3c-0.2-0.1-0.5-0.1-0.7-0.2c-3.5-1-5.5-3.2-5.9-6.8c-0.2-1.6-0.3-3.2-0.3-4.8c0-7.8,0-15.6,0-23.4
			c0-0.5,0-0.9,0-1.5c-2.5-0.2-4.8,0-7.2-0.1c-0.3-0.9-0.3-5.2-0.1-7.1c2.3,0,4.7,0,7.2,0c0.2-1.2,0.1-2.3,0.1-3.4s0-2.2,0-3.3
			c0-1.1,0-2.1,0-3.2C418.1,250.6,418.1,249.5,418.1,248.3z"/>
		<path class="st1" d="M513.2,244.8c3.3,0,6.4,0,9.6,0c0,20.3,0,40.5,0,60.8c-3.2,0-6.4,0-9.6,0
			C513.2,285.4,513.2,265.1,513.2,244.8z"/>
		<path class="st1" d="M291.5,261.6c3,0,5.9,0,8.9,0c0.1,2.7,0,5.4,0.1,8.1c1.7-4.1,4.7-6.8,8.7-8.5c2.4-1,5.1-1.1,7.8-0.5
			c0,3,0,6.1,0,9.2c-0.9-0.1-1.7-0.2-2.5-0.3c-4.9-0.5-8.6,1.2-11.3,5.4c-1.7,2.8-2.4,5.9-2.4,9.1c0,6.6,0,13.2,0,19.8
			c0,0.5,0,0.9,0,1.4c-0.9,0.3-7,0.4-9.5,0.2l-0.1-0.1l-0.1-0.1c0-0.2-0.1-0.3-0.1-0.5c0.1-14.2,0.1-28.5,0.2-42.7
			C291.4,262,291.5,261.8,291.5,261.6z"/>
		<path class="st1" d="M504.3,305.6c-3.2,0-6.3,0-9.5,0l-0.1-0.1l-0.1-0.1c0-0.2-0.1-0.3-0.1-0.5c0-14.3,0-28.6,0-42.9
			c0-0.1,0.1-0.2,0.1-0.4c3.2,0,6.3,0,9.6,0C504.3,276.3,504.3,290.9,504.3,305.6z"/>
		<path class="st1" d="M494.7,253.9c0-3.1,0-6.1,0-9.1c3.2,0,6.4,0,9.6,0c0,3,0,6,0,9.1C501.2,254,498,253.9,494.7,253.9z"/>
		<g>
			<polygon class="st3" points="170.9,206.9 183.9,246.6 225.6,246.6 191.8,271.2 204.8,310.9 170.9,286.4 137.1,310.9 150.1,271.2 
				116.2,246.6 158,246.6 			"/>
			<polygon class="st4" points="191.8,271.2 170.9,286.2 195.3,281.7 			"/>
		</g>
	</g>
</g>
</svg>
